<?xml version="1.0" encoding="UTF-8" standalone="no"?>
<!-- Created with Inkscape (http://www.inkscape.org/) -->

<svg
   xmlns:dc="http://purl.org/dc/elements/1.1/"
   xmlns:cc="http://creativecommons.org/ns#"
   xmlns:rdf="http://www.w3.org/1999/02/22-rdf-syntax-ns#"
   xmlns:svg="http://www.w3.org/2000/svg"
   xmlns="http://www.w3.org/2000/svg"
   xmlns:xlink="http://www.w3.org/1999/xlink"
   xmlns:sodipodi="http://sodipodi.sourceforge.net/DTD/sodipodi-0.dtd"
   xmlns:inkscape="http://www.inkscape.org/namespaces/inkscape"
   width="210mm"
   height="297mm"
   viewBox="0 0 210 297"
   version="1.1"
   id="svg8"
   inkscape:version="0.92.3 (2405546, 2018-03-11)"
   sodipodi:docname="Carambola.svg"
   inkscape:export-filename="/home/isleimar/Documentos/ADS/04 - Periodo - 2018.2/Programação Para Web I/Leriado/media/Logo1.png"
   inkscape:export-xdpi="95"
   inkscape:export-ydpi="95">
  <defs
     id="defs2">
    <linearGradient
       inkscape:collect="always"
       id="linearGradient964">
      <stop
         style="stop-color:#ffffff;stop-opacity:1;"
         offset="0"
         id="stop960" />
      <stop
         style="stop-color:#ffffff;stop-opacity:0;"
         offset="1"
         id="stop962" />
    </linearGradient>
    <linearGradient
       inkscape:collect="always"
       xlink:href="#linearGradient964"
       id="linearGradient966"
       x1="458.60925"
       y1="746.74292"
       x2="458.60925"
       y2="948.77344"
       gradientUnits="userSpaceOnUse" />
    <filter
       style="color-interpolation-filters:sRGB;"
       inkscape:label="Drop Shadow"
       id="filter978">
      <feFlood
         flood-opacity="0.498039"
         flood-color="rgb(0,0,0)"
         result="flood"
         id="feFlood968" />
      <feComposite
         in="flood"
         in2="SourceGraphic"
         operator="in"
         result="composite1"
         id="feComposite970" />
      <feGaussianBlur
         in="composite1"
         stdDeviation="3"
         result="blur"
         id="feGaussianBlur972" />
      <feOffset
         dx="6"
         dy="6"
         result="offset"
         id="feOffset974" />
      <feComposite
         in="SourceGraphic"
         in2="offset"
         operator="over"
         result="composite2"
         id="feComposite976" />
    </filter>
  </defs>
  <sodipodi:namedview
     id="base"
     pagecolor="#ffffff"
     bordercolor="#666666"
     borderopacity="1.0"
     inkscape:pageopacity="0.0"
     inkscape:pageshadow="2"
     inkscape:zoom="0.40802669"
     inkscape:cx="85.673142"
     inkscape:cy="317.93638"
     inkscape:document-units="mm"
     inkscape:current-layer="layer1"
     showgrid="false"
     showguides="true"
     inkscape:guide-bbox="true"
     inkscape:snap-global="false"
     inkscape:window-width="1366"
     inkscape:window-height="712"
     inkscape:window-x="0"
     inkscape:window-y="0"
     inkscape:window-maximized="1" />
  <metadata
     id="metadata5">
    <rdf:RDF>
      <cc:Work
         rdf:about="">
        <dc:format>image/svg+xml</dc:format>
        <dc:type
           rdf:resource="http://purl.org/dc/dcmitype/StillImage" />
        <dc:title />
      </cc:Work>
    </rdf:RDF>
  </metadata>
  <g
     inkscape:label="Camada 1"
     inkscape:groupmode="layer"
     id="layer1">
    <g
       id="g991"
       transform="matrix(0.73407208,0,0,0.73407208,30.73564,33.130546)">
      <g
         transform="matrix(0.8364014,0,0,0.8364014,32.713454,53.625519)"
         id="g860">
        <path
           inkscape:connector-curvature="0"
           style="color:#000000;font-style:normal;font-variant:normal;font-weight:normal;font-stretch:normal;font-size:medium;line-height:normal;font-family:sans-serif;font-variant-ligatures:normal;font-variant-position:normal;font-variant-caps:normal;font-variant-numeric:normal;font-variant-alternates:normal;font-feature-settings:normal;text-indent:0;text-align:start;text-decoration:none;text-decoration-line:none;text-decoration-style:solid;text-decoration-color:#000000;letter-spacing:normal;word-spacing:normal;text-transform:none;writing-mode:lr-tb;direction:ltr;text-orientation:mixed;dominant-baseline:auto;baseline-shift:baseline;text-anchor:start;white-space:normal;shape-padding:0;clip-rule:nonzero;display:inline;overflow:visible;visibility:visible;opacity:1;isolation:auto;mix-blend-mode:normal;color-interpolation:sRGB;color-interpolation-filters:linearRGB;solid-color:#000000;solid-opacity:1;vector-effect:none;fill:#ffcc00;fill-opacity:1;fill-rule:nonzero;stroke:none;stroke-width:49.00157547;stroke-linecap:butt;stroke-linejoin:miter;stroke-miterlimit:4;stroke-dasharray:none;stroke-dashoffset:0;stroke-opacity:1;color-rendering:auto;image-rendering:auto;shape-rendering:auto;text-rendering:auto;enable-background:accumulate"
           d="M 313.76562,53.361328 292.12109,77.810547 C 245.92873,129.97873 217.13374,187.60235 195.06836,246.03516 126.14538,236.06733 61.232097,253.24323 0.03320312,269.41211 l -25.69140612,6.78516 8.841797,25.05468 C 6.3155523,366.78218 49.725979,419.90481 113.81445,454.60352 86.07379,518.37745 81.803486,582.0307 77.171875,642.00391 l -2.568359,33.28711 32.527344,-7.53321 c 65.76822,-15.23792 127.19766,-38.35392 178.19531,-76.93164 46.17119,45.81793 109.54175,70.44931 170.63086,93.7168 l 28.8125,10.97461 4.18359,-30.55274 c 8.87521,-64.86149 14.62604,-133.55639 -14.49609,-195.39453 38.48902,-18.74392 71.53934,-45.09086 99.48828,-77.53906 a 78.99563,74.751284 0 0 1 -57.51758,-11.20313 c -24.48082,23.56432 -52.52514,41.77581 -85.1582,54.03907 l -28.73437,10.80273 16.90234,25.6211 c 28.88549,43.79176 30.41462,96.85792 24.35547,155.63671 C 387.59128,604.35564 337.2689,579.60714 306.87109,541.9375 l -16.07812,-19.91992 -19.19336,16.93554 c -38.27331,33.76381 -87.17226,56.10656 -142.62305,72.05469 4.81434,-54.35187 12.4029,-106.06448 38.84375,-156.13086 l 12.27735,-23.23047 -24.04102,-10.61914 C 99.687327,396.13375 62.897713,359.25638 39.732422,309.93945 96.865544,295.51201 151.29496,285.1752 205.27539,297.42773 l 21.29102,4.83008 7.24609,-20.59179 c 18.03527,-51.25617 40.69529,-99.56252 73.70508,-144.0586 13.22627,23.48009 25.08994,47.61583 35.31836,72.58985 a 78.99563,74.751284 0 0 1 15.6582,-43.00196 78.99563,74.751284 0 0 1 -8.42969,-10.53906 78.99563,74.751284 0 0 1 -8.99609,-59.529297 c -3.22602,-5.423518 -6.51862,-10.80545 -9.88477,-16.142578 z m 46.49219,205.441402 c 2.98579,9.69937 5.72415,19.52941 8.19531,29.50196 l 4.73438,19.08984 19.66016,-0.49219 c 1.2789,-0.032 2.55918,-0.048 3.83984,-0.0625 a 78.99563,74.751284 0 0 1 -1.37891,-24.43164 78.99563,74.751284 0 0 1 -35.05078,-23.60547 z"
           transform="scale(0.26458333)"
           id="path15" />
        <path
           inkscape:connector-curvature="0"
           style="fill:#ffff00;stroke:#ffdd55;stroke-width:1.00157475;stroke-miterlimit:4;stroke-dasharray:none"
           d="M 310.46094,94.050781 C 261.96311,148.82267 233.02306,210.08143 210.69727,273.53125 141.02249,257.71639 73.649958,275.30128 6.2910156,293.09766 30.131128,360.63399 75.061952,412.04216 146.1582,443.43945 c -34.84456,65.97899 -39.36528,133.22809 -44.55664,200.44922 71.70214,-16.61272 136.16798,-42.42094 186.20508,-86.5625 41.22096,51.08198 108.44121,78.25366 176.86914,104.31641 9.95135,-72.72628 14.63929,-144.07077 -24.78516,-203.83985 39.33691,-14.78252 73.00314,-37.29634 101.69727,-66.58789 a 78.99563,74.751284 0 0 1 -45.58594,-28.75195 78.99563,74.751284 0 0 1 -89.31054,-32.07812 78.99563,74.751284 0 0 1 -11.38282,-47.97657 78.99563,74.751284 0 0 1 -0.11914,-0.0449 c -0.98465,0.0154 -1.96808,0.0203 -2.95312,0.0449 -0.1055,-0.42574 -0.21784,-0.84818 -0.32422,-1.27343 A 78.99563,74.751284 0 0 1 354.7207,251.5293 78.99563,74.751284 0 0 1 353.90625,173.71289 c -12.7003,-27.52366 -27.2769,-54.02658 -43.44531,-79.662109 z"
           transform="scale(0.26458333)"
           id="path12" />
        <path
           inkscape:connector-curvature="0"
           style="fill:#ffff4e;fill-opacity:1;stroke:#ffdd55;stroke-width:0.54252601;stroke-miterlimit:4;stroke-dasharray:none"
           d="m 303.51367,236.30469 c -26.36944,29.53569 -42.09865,62.57324 -54.23047,96.79492 -37.90179,-8.54403 -74.54589,0.92873 -111.18164,10.51562 12.98037,36.43478 37.42948,64.17331 76.10742,81.12305 -18.94078,35.58354 -21.38623,71.85795 -24.19726,108.11719 38.9984,-8.94754 74.05886,-22.85705 101.26758,-46.6582 22.43138,27.56231 59.00102,42.23301 96.22656,56.30468 5.39913,-39.2279 7.93431,-77.71107 -13.52148,-109.95898 34.59019,-12.88034 61.11011,-36.67055 81.17382,-69.18555 a 78.99563,74.751284 0 0 1 -30.02539,-13.74219 c -25.56878,-7.04758 -51.21101,-12.327 -77.10156,-11.69335 -9.2321,-36.89834 -24.68298,-70.44054 -44.51758,-101.61719 z"
           transform="scale(0.26458333)"
           id="path829" />
      </g>
      <g
         transform="matrix(0.87587289,0,0,0.99069126,15.36678,-11.776261)"
         id="g982">
        <path
           inkscape:connector-curvature="0"
           style="font-style:italic;font-variant:normal;font-weight:bold;font-stretch:normal;font-size:10.58333302px;line-height:1.25;font-family:'Ubuntu Mono';-inkscape-font-specification:'Ubuntu Mono, Bold Italic';font-variant-ligatures:normal;font-variant-caps:normal;font-variant-numeric:normal;font-feature-settings:normal;text-align:start;letter-spacing:0px;word-spacing:0px;writing-mode:lr-tb;text-anchor:start;fill:#d45500;fill-opacity:1;stroke:none;stroke-width:8.5778656;filter:url(#filter978)"
           d="m -21.816406,750.64648 c -19.214418,0 -36.026686,4.46185 -50.4375,13.38282 -14.182143,8.69226 -25.961304,20.1285 -35.339844,34.31054 -9.37832,13.95334 -16.46983,29.73638 -21.27344,47.34961 -4.57493,17.38447 -6.86328,34.65482 -6.86328,51.81055 0,11.20842 1.37422,21.50239 4.11914,30.88086 2.74492,9.14971 6.86173,17.04028 12.35156,23.67383 5.71851,6.40484 12.92293,11.43781 21.615239,15.09765 8.692308,3.43116 18.871212,5.14649 30.537109,5.14649 13.03836,0 24.70461,-1.48728 34.998047,-4.46094 10.29344,-3.20239 18.414156,-6.63308 24.3613281,-10.29297 l -4.8046871,-33.96875 c -4.574937,2.74492 -10.407087,5.37642 -17.498047,7.89258 -7.091183,2.51621 -15.897813,3.77344 -26.419922,3.77344 -6.862292,0 -12.694441,-1.02918 -17.498047,-3.08789 -4.574934,-2.05869 -8.350633,-4.91824 -11.324219,-8.57813 -2.744917,-3.88863 -4.803321,-8.34854 -6.175781,-13.38086 -1.143357,-5.03236 -1.714844,-10.6364 -1.714844,-16.8125 0,-11.89462 1.372271,-24.01704 4.117188,-36.36914 2.744917,-12.58086 6.861728,-24.01906 12.351562,-34.3125 5.718723,-10.29344 12.696889,-18.75705 20.931641,-25.39062 8.46342,-6.63353 18.29947,-9.94922 29.507812,-9.94922 9.607209,0 17.4977655,1.2573 23.6738285,3.77344 6.176063,2.28747 11.5520205,5.14699 16.1269535,8.57812 l 15.783203,-32.5957 c -1.143571,-0.9149 -3.087115,-2.28717 -5.832032,-4.11719 -2.744917,-2.05873 -6.290456,-3.88908 -10.636718,-5.49023 -4.3460462,-1.82993 -9.3791507,-3.43222 -15.0976565,-4.80469 -5.71872,-1.37245 -12.2389565,-2.0586 -19.5585935,-2.0586 z m 543.798826,25.97461 -35.42578,5.8125 -43.73047,181.5625 c 7.01163,2.58316 14.94602,4.61171 23.80274,6.08789 8.85669,1.47616 16.97493,2.21485 24.35547,2.21485 11.8089,0 22.60346,-2.02858 32.38281,-6.08789 9.77932,-4.24386 18.17409,-10.05692 25.18554,-17.4375 3.28444,-3.5437 6.21245,-7.42375 8.8086,-11.61524 1.66789,8.61549 5.03456,15.90513 10.11719,21.85547 7.56515,8.85669 19.09839,13.28516 34.59765,13.28516 12.5469,0 23.52531,-2.49076 32.93555,-7.47266 9.59488,-5.16641 17.52927,-11.90191 23.80273,-20.20508 6.45808,-8.30316 11.254,-17.71312 14.39063,-28.23047 3.1368,-10.51734 4.70508,-21.21909 4.70508,-32.10546 0,-16.23731 -4.14996,-28.41453 -12.45313,-36.53321 -8.1187,-8.30317 -18.91328,-12.45507 -32.38281,-12.45507 -12.54708,-10e-6 -23.61818,2.58356 -33.21289,7.75 -9.59471,4.98189 -17.622,11.62456 -24.08008,19.92773 -2.23879,2.87841 -4.27686,5.89846 -6.13867,9.04297 -1.54486,-10.03856 -4.79176,-17.85044 -9.74219,-23.43555 -7.01163,-8.30317 -16.60717,-12.45508 -28.78516,-12.45508 -4.05926,0 -8.30212,0.55306 -12.73046,1.66016 -4.24391,1.10707 -8.30292,2.6754 -12.17774,4.70508 z m 159.32031,1.66016 -6.64257,28.23047 h 35.98046 l -25.74023,107.9414 c -0.92228,3.69031 -1.66041,7.28916 -2.21484,10.79493 -0.36962,3.32127 -0.55469,6.55074 -0.55469,9.6875 0,11.62444 3.13652,20.66502 9.41016,27.12304 6.27343,6.45801 15.68534,9.6875 28.23242,9.6875 5.71991,0 10.88523,-0.36943 15.49804,-1.10742 4.79743,-0.73801 8.94934,-1.5676 12.45508,-2.49023 3.50589,-0.92251 6.27318,-1.84495 8.30274,-2.76758 2.21485,-1.10707 3.6922,-1.84576 4.42968,-2.21484 l -0.26562,-3.22461 c 6.90873,7.68768 16.15158,11.62883 27.73437,11.80468 9.96291,-1.9e-4 18.08033,-1.47571 24.35352,-4.42773 6.27346,-2.95224 11.25691,-5.81236 14.94727,-8.58008 0.18479,0.55355 0.46046,1.38316 0.83007,2.49024 0.36788,0.92263 0.83036,2.02874 1.38477,3.32031 0.55267,1.29159 1.10572,2.49253 1.66016,3.59961 0.55266,1.10715 1.0132,2.02956 1.38281,2.76758 l 29.89258,-4.98243 c -1.66065,-4.98189 -3.04527,-9.96339 -4.15235,-14.94531 -0.92228,-5.16641 -1.38281,-10.42641 -1.38281,-15.77734 0,-3.32127 0.1851,-6.54882 0.55469,-9.68555 0.36961,-3.32127 0.92267,-6.64357 1.66015,-9.96484 l 17.16016,-70.57617 c -7.93426,-3.13669 -15.77772,-5.44374 -23.52734,-6.91993 -7.74962,-1.47618 -15.40571,-2.21484 -22.97071,-2.21484 -11.07089,0 -21.58894,2.12333 -31.55273,6.36719 -9.77935,4.05931 -18.3597,9.87042 -25.74024,17.43554 -7.38071,7.38059 -13.19181,16.33032 -17.43554,26.84766 -4.24388,10.51734 -6.36524,22.0487 -6.36524,34.5957 0,6.53814 0.56436,12.452 1.67578,17.76172 -0.87985,0.26838 -1.60568,0.48464 -2.57617,0.7832 -2.39864,0.73802 -4.98032,1.38396 -7.74804,1.9375 -2.58326,0.36909 -5.16692,0.55274 -7.75,0.55274 -6.27364,0 -10.42555,-1.38462 -12.45508,-4.15234 -2.02973,-2.76773 -3.04492,-5.99525 -3.04492,-9.68555 0,-1.66062 0.18507,-3.50548 0.55468,-5.53516 0.55267,-2.21417 1.0132,-4.2447 1.38282,-6.08984 L 751.32617,778.28125 Z M 81.019531,835.84961 c -11.070886,0 -21.588934,2.12333 -31.552734,6.36719 -9.779171,4.05931 -18.359524,9.87042 -25.740235,17.43554 -7.380536,7.38059 -13.191647,16.33032 -17.4355464,26.84766 -4.2437291,10.51734 -6.36718747,22.0487 -6.36718747,34.5957 0,16.42185 3.50612617,28.97038 10.51757787,37.64258 7.011623,8.48774 16.607176,12.82337 28.785156,13.00781 9.963803,0 18.083979,-1.47552 24.357422,-4.42773 6.273618,-2.95224 11.255133,-5.81236 14.945313,-8.58008 0.183063,0.55355 0.458515,1.38316 0.828125,2.49024 0.36961,0.92263 0.832093,2.02874 1.384766,3.32031 0.552672,1.29159 1.105742,2.49253 1.660156,3.59961 0.552673,1.10715 1.0132,2.02956 1.382812,2.76758 l 26.433594,-4.40625 -0.52344,2.1914 h 34.04297 l 22.9707,-96.3164 c 4.24373,-1.47614 8.85795,-2.49138 13.83985,-3.04493 5.16653,-0.73799 10.14804,-1.10742 14.94531,-1.10742 7.01162,0 12.91545,0.36943 17.71289,1.10742 4.79727,0.73812 8.94918,1.75336 12.45508,3.04493 l 13.00781,-31.27539 c -5.53544,-1.47606 -11.62309,-2.67503 -18.26562,-3.59766 -6.45791,-0.92263 -14.85461,-1.38477 -25.1875,-1.38477 -8.85672,0 -18.35956,1.01524 -28.50782,3.04493 -9.9638,1.84514 -19.28086,4.5196 -27.95312,8.02539 l -26.94922,112.67968 c -0.85427,-2.96306 -1.62279,-5.9256 -2.28125,-8.88867 -0.92228,-5.16641 -1.38281,-10.42641 -1.38281,-15.77734 0,-3.32127 0.18312,-6.54882 0.55273,-9.68555 0.36961,-3.32127 0.92463,-6.64357 1.66211,-9.96484 l 17.1582,-70.57617 c -7.93407,-3.13669 -15.77576,-5.44374 -23.52539,-6.91993 -7.74962,-1.47618 -15.405533,-2.21484 -22.970699,-2.21484 z m 214.771489,0 c -11.0709,0 -21.58894,2.12333 -31.55274,6.36719 -9.77934,4.05931 -18.35774,9.87042 -25.73828,17.43554 -7.38071,7.38059 -13.19377,16.33032 -17.4375,26.84766 -4.2439,10.51734 -6.36523,22.0487 -6.36523,34.5957 0,16.42185 3.50595,28.97038 10.51757,37.64258 7.01145,8.48774 16.60523,12.82337 28.78321,13.00781 H 254 c 9.9638,0 18.08185,-1.47552 24.35547,-4.42773 6.27345,-2.95224 11.25496,-5.81236 14.94531,-8.58008 0.18306,0.55355 0.46047,1.38316 0.83008,2.49024 0.36961,0.92263 0.83014,2.02874 1.38281,3.32031 0.55442,1.29159 1.10749,2.49253 1.66016,3.59961 0.55267,1.10715 1.0132,2.02956 1.38281,2.76758 l 23.01367,-3.83594 -0.39062,1.62109 h 27.67773 l 25.18555,-105.17383 c 2.7677,-0.92263 5.72079,-1.38281 8.85742,-1.38281 2.76808,0 4.6129,0.82959 5.53516,2.49024 0.92228,1.4761 1.38281,3.13728 1.38281,4.98242 0,1.47605 -0.18312,2.95155 -0.55274,4.42773 -0.36787,1.47613 -0.7378,2.76793 -1.10742,3.875 l -9.6875,41.24024 h 26.84766 l 9.41016,-39.30274 c 1.10707,-4.61286 1.66015,-9.0413 1.66015,-13.28515 1.47689,-1.29154 3.04531,-2.39768 4.70508,-3.32032 1.6606,-0.92263 3.4145,-1.38476 5.25977,-1.38476 4.98189,0 7.47265,2.76729 7.47265,8.30273 0,0.73799 -0.0926,1.84608 -0.27734,3.32227 -0.18306,1.29166 -0.45851,2.58346 -0.82813,3.875 l -21.58984,91.33398 h 27.67773 l 21.03516,-88.84375 c 0.73736,-2.58323 1.19787,-5.07396 1.38281,-7.47265 0.36959,-2.58321 0.55469,-4.98114 0.55469,-7.19532 0,-9.59476 -2.39806,-16.60678 -7.19531,-21.03515 -4.61299,-4.61287 -10.6097,-6.91992 -17.99024,-6.91992 -3.87482,0 -8.30326,0.82958 -13.28515,2.49023 -4.79743,1.47611 -9.31882,3.87602 -13.5625,7.19727 -2.58326,-3.50572 -5.99636,-5.99648 -10.24024,-7.47266 -4.05924,-1.47618 -8.48775,-2.21484 -13.28515,-2.21484 -5.35081,-10e-6 -10.88544,0.64593 -16.60547,1.9375 -5.53542,1.10707 -11.71795,2.85912 -18.54492,5.25781 l -26.20899,108.95703 c -0.19192,-0.79948 -0.38874,-1.59896 -0.5664,-2.39844 -0.92229,-5.16641 -1.38282,-10.42641 -1.38282,-15.77734 0,-3.32127 0.18508,-6.54882 0.55469,-9.68555 0.36961,-3.32127 0.92268,-6.64357 1.66016,-9.96484 l 17.16015,-70.57617 c -7.93423,-3.13669 -15.77576,-5.44374 -23.52539,-6.91993 -7.74962,-1.47618 -15.40766,-2.21484 -22.97265,-2.21484 z M 75.759766,864.63477 c 2.029722,0 4.151058,0.0929 6.365234,0.27734 2.214178,0.18447 4.335686,0.55387 6.365234,1.10742 l -11.90039,49.26367 c -0.737477,3.13676 -1.290544,5.906 -1.660156,8.30469 -0.367867,2.39869 -0.737815,4.88945 -1.107422,7.47266 -2.583267,3.13675 -5.627089,5.90404 -9.132813,8.30273 -3.505895,2.21417 -7.841455,3.32031 -13.007812,3.32031 l -0.002,0.002 c -2.767721,0 -5.258478,-0.36943 -7.472657,-1.10743 -2.21505,-0.73806 -4.152738,-2.02985 -5.8125,-3.875 -1.476352,-1.84516 -2.675373,-4.3359 -3.597656,-7.47265 -0.737478,-3.13673 -1.107422,-7.10494 -1.107422,-11.90235 0,-6.82703 0.922313,-13.4697 2.767578,-19.92773 2.029548,-6.45803 4.889725,-12.17631 8.580078,-17.1582 3.690356,-4.98187 8.118799,-8.95008 13.285157,-11.90235 5.166354,-3.13673 10.979426,-4.70507 17.4375,-4.70507 z m 214.771484,0 c 2.02972,0 4.15301,0.0929 6.36719,0.27734 2.21418,0.18447 4.33551,0.55387 6.36523,1.10742 l -11.90234,49.26367 c -0.73748,3.13676 -1.29055,5.906 -1.66016,8.30469 -0.36787,2.39869 -0.73586,4.88945 -1.10547,7.47266 -2.58326,3.13675 -5.62904,5.90404 -9.13476,8.30273 -3.50573,2.21417 -7.84128,3.32031 -13.00782,3.32031 l -0.002,0.002 c -2.76772,0 -5.25848,-0.36943 -7.47265,-1.10743 -2.21505,-0.73806 -4.15274,-2.02985 -5.8125,-3.875 -1.47636,-1.84516 -2.67538,-4.3359 -3.59766,-7.47265 -0.73748,-3.13673 -1.10547,-7.10494 -1.10547,-11.90235 0,-6.82703 0.92249,-13.4697 2.76758,-19.92773 2.02972,-6.45803 4.88989,-12.17631 8.58008,-17.1582 3.69035,-4.98187 8.11879,-8.95008 13.28515,-11.90235 5.16653,-3.13673 10.97765,-4.70507 17.43555,-4.70507 z m 228.68359,0 c 5.35098,0 9.5958,1.84487 12.73243,5.53515 3.32127,3.50579 4.98046,10.05561 4.98046,19.65039 0,7.01156 -0.92248,13.74705 -2.76757,20.20508 -1.84509,6.27349 -4.61238,11.90092 -8.30274,16.88281 -3.50571,4.79741 -7.84127,8.67279 -13.00781,11.625 -5.16636,2.95227 -11.16325,4.42774 -17.99023,4.42774 -2.02974,0 -4.15107,-0.0929 -6.36524,-0.27735 -2.21417,-0.18444 -4.33745,-0.46097 -6.36719,-0.83007 L 499.56445,871 c 2.58326,-2.02966 5.7198,-3.598 9.41016,-4.70508 3.87482,-1.1071 7.28804,-1.66015 10.24023,-1.66015 z m 105.55469,0 c 7.74962,0 12.82402,2.49076 15.22266,7.47265 2.58328,4.98187 3.875,11.80824 3.875,20.48047 0,5.16639 -0.83047,10.70292 -2.49024,16.60742 -1.47618,5.71994 -3.78329,11.07084 -6.91992,16.05274 -2.95236,4.98192 -6.54924,9.13383 -10.79297,12.45507 -4.24388,3.32128 -9.13447,4.98047 -14.66992,4.98047 h -0.002 c -7.56516,0 -12.63955,-2.49076 -15.22266,-7.47265 -2.39879,-4.9819 -3.59765,-11.80827 -3.59765,-20.48047 -10e-6,-5.16641 0.73815,-10.61012 2.21484,-16.33008 1.66062,-5.90448 3.96773,-11.34623 6.91992,-16.32812 2.95237,-4.9819 6.54924,-9.13381 10.79297,-12.45508 4.42835,-3.32125 9.31894,-4.98242 14.66992,-4.98242 z m 199.69141,0 c 2.02973,0 4.15106,0.0929 6.36523,0.27734 2.21418,0.18447 4.33746,0.55387 6.36719,1.10742 l -11.90234,49.26367 c -0.73749,3.13676 -1.29055,5.906 -1.66016,8.30469 -0.36785,2.39869 -0.73781,4.88945 -1.10742,7.47266 -2.58328,3.13675 -5.6271,5.90404 -9.13282,8.30273 -3.50571,2.21417 -7.84127,3.32031 -13.00781,3.32031 l -0.002,0.002 c -2.76772,0 -5.25848,-0.36943 -7.47266,-1.10743 -2.21329,-0.73806 -4.15099,-2.02985 -5.8125,-3.875 -1.47636,-1.84516 -2.67537,-4.3359 -3.59765,-7.47265 -0.73749,-3.13673 -1.10743,-7.10494 -1.10743,-11.90235 10e-6,-6.82703 0.92249,-13.4697 2.76758,-19.92773 2.02974,-6.45803 4.8899,-12.17631 8.58008,-17.1582 3.69036,-4.98187 8.11882,-8.95008 13.28516,-11.90235 5.16654,-3.13673 10.9796,-4.70507 17.4375,-4.70507 z"
           transform="scale(0.26458333)"
           id="path885" />
        <path
           inkscape:connector-curvature="0"
           style="font-style:italic;font-variant:normal;font-weight:bold;font-stretch:normal;font-size:10.58333302px;line-height:1.25;font-family:'Ubuntu Mono';-inkscape-font-specification:'Ubuntu Mono, Bold Italic';font-variant-ligatures:normal;font-variant-caps:normal;font-variant-numeric:normal;font-feature-settings:normal;text-align:start;letter-spacing:0px;word-spacing:0px;writing-mode:lr-tb;text-anchor:start;fill:url(#linearGradient966);fill-opacity:1;stroke:none;stroke-width:8.5778656"
           d="m 798.7832,861.61523 c -9.43764,-0.0418 -18.88031,0.003 -28.32422,0.0918 -6.4508,6.96922 -11.60865,15.23123 -15.46679,24.79297 -4.24388,10.51734 -6.36524,22.0487 -6.36524,34.5957 0,6.53814 0.56436,12.452 1.67578,17.76172 -0.87985,0.26838 -1.60568,0.48465 -2.57617,0.7832 -2.39864,0.73802 -4.98032,1.38397 -7.74804,1.9375 -2.58326,0.36909 -5.16692,0.55274 -7.75,0.55274 -6.27364,0 -10.42555,-1.38462 -12.45508,-4.15234 -2.02973,-2.76773 -3.04492,-5.99525 -3.04492,-9.68555 0,-1.66062 0.18507,-3.50548 0.55468,-5.53516 0.55267,-2.21417 1.0132,-4.2447 1.38282,-6.08984 l 12.80664,-54.25977 c -11.47408,0.30398 -22.95292,0.69072 -34.43555,1.14649 l -12.13672,50.89843 c -0.92228,3.69031 -1.66041,7.28916 -2.21484,10.79493 -0.36962,3.32127 -0.55469,6.55074 -0.55469,9.6875 0,11.62444 3.13652,20.66502 9.41016,27.12304 6.27343,6.45801 15.68534,9.6875 28.23242,9.6875 5.71991,0 10.88523,-0.36943 15.49804,-1.10742 4.79743,-0.73801 8.94934,-1.5676 12.45508,-2.49023 3.50589,-0.92251 6.27318,-1.84495 8.30274,-2.76758 2.21485,-1.10707 3.6922,-1.84576 4.42968,-2.21484 l -0.26562,-3.22461 c 6.90873,7.68768 16.15158,11.62883 27.73437,11.80468 9.96291,-1.9e-4 18.08033,-1.47571 24.35352,-4.42773 6.27346,-2.95224 11.25691,-5.81236 14.94727,-8.58008 0.18479,0.55355 0.46046,1.38316 0.83007,2.49024 0.36788,0.92263 0.83036,2.02874 1.38477,3.32031 0.55267,1.29159 1.10572,2.49253 1.66016,3.59961 0.55266,1.10715 1.0132,2.02956 1.38281,2.76758 l 29.89258,-4.98243 c -1.66065,-4.98189 -3.04527,-9.96339 -4.15235,-14.94531 -0.92228,-5.16641 -1.38281,-10.42641 -1.38281,-15.77734 0,-3.32127 0.1851,-6.54882 0.55469,-9.68555 0.36961,-3.32127 0.92267,-6.64357 1.66015,-9.96484 l 12.6836,-52.16211 c -24.29772,-1.10978 -48.61742,-1.67539 -72.95899,-1.78321 z m -123.50976,2.87696 c -13.52793,0.63751 -27.06059,1.36556 -40.59961,2.16601 2.38782,1.24353 4.16588,3.05557 5.31836,5.44922 2.58328,4.98187 3.875,11.80824 3.875,20.48047 0,5.16639 -0.83047,10.70292 -2.49024,16.60742 -1.47618,5.71994 -3.78329,11.07084 -6.91992,16.05274 -2.95236,4.98192 -6.54924,9.13384 -10.79297,12.45507 -4.24388,3.32128 -9.13447,4.98047 -14.66992,4.98047 h -0.002 c -7.56516,0 -12.63955,-2.49076 -15.22266,-7.47265 -2.39879,-4.9819 -3.59766,-11.80827 -3.59765,-20.48047 -10e-6,-5.16641 0.73815,-10.61012 2.21484,-16.33008 1.66062,-5.90448 3.96773,-11.34623 6.91992,-16.32812 2.95237,-4.9819 6.54924,-9.13381 10.79297,-12.45508 0.77972,-0.58479 1.57835,-1.10018 2.38672,-1.58203 -14.05768,0.90884 -28.12073,1.88458 -42.18945,2.91406 -0.2177,0.35654 -0.44126,0.70854 -0.6543,1.06836 -0.0532,-0.34554 -0.12443,-0.66756 -0.18164,-1.00781 -11.72526,0.85966 -23.45495,1.7599 -35.1875,2.67968 1.76725,3.75891 2.65429,9.1311 2.65429,16.13086 0,7.01156 -0.92248,13.74705 -2.76757,20.20508 -1.84509,6.27349 -4.61238,11.90092 -8.30274,16.88281 -3.50571,4.79741 -7.84127,8.67279 -13.00781,11.625 -5.16636,2.95227 -11.16326,4.42774 -17.99023,4.42774 -2.02974,0 -4.15107,-0.0929 -6.36524,-0.27735 -2.21417,-0.18444 -4.33745,-0.46097 -6.36719,-0.83007 l 16.06446,-65.2754 c -11.6649,0.95343 -23.33446,1.91794 -35.00586,2.88868 l -20.35938,84.52929 c 7.01163,2.58316 14.94602,4.61171 23.80274,6.08789 8.85669,1.47616 16.97493,2.21485 24.35547,2.21485 11.80889,0 22.60346,-2.02858 32.38281,-6.08789 9.77932,-4.24386 18.17409,-10.05692 25.18554,-17.4375 3.28444,-3.5437 6.21245,-7.42375 8.8086,-11.61524 1.66789,8.61549 5.03456,15.90513 10.11719,21.85547 7.56515,8.85669 19.09839,13.28516 34.59765,13.28516 12.5469,0 23.52531,-2.49076 32.93555,-7.47266 9.59488,-5.16641 17.52927,-11.90191 23.80273,-20.20508 6.45808,-8.30316 11.254,-17.71312 14.39063,-28.23047 3.1368,-10.51733 4.70508,-21.21909 4.70508,-32.10546 0,-7.4576 -0.88558,-14.04814 -2.63672,-19.79297 z m 149.1875,0.14258 c 2.02973,0 4.15106,0.0929 6.36523,0.27734 2.21418,0.18447 4.33746,0.55387 6.36719,1.10742 l -11.90234,49.26367 c -0.73749,3.13676 -1.29055,5.906 -1.66016,8.30469 -0.36785,2.39869 -0.73781,4.88945 -1.10742,7.47266 -2.58328,3.13675 -5.6271,5.90404 -9.13282,8.30273 -3.5057,2.21417 -7.84127,3.32031 -13.00781,3.32031 l -0.002,0.002 c -2.76772,0 -5.25848,-0.36943 -7.47266,-1.10743 -2.21329,-0.73805 -4.15099,-2.02985 -5.8125,-3.875 -1.47636,-1.84515 -2.67537,-4.3359 -3.59765,-7.47265 -0.73749,-3.13673 -1.10743,-7.10494 -1.10743,-11.90235 10e-6,-6.82702 0.92249,-13.4697 2.76758,-19.92773 2.02974,-6.45803 4.8899,-12.17631 8.58008,-17.1582 3.69036,-4.98187 8.11882,-8.95008 13.28516,-11.90235 5.16654,-3.13673 10.9796,-4.70507 17.4375,-4.70507 z m -364.58789,15.10742 c -9.42089,0.78397 -18.84463,1.56584 -28.26953,2.34765 l -20.47266,86.61133 h 27.67773 l 21.03516,-88.84375 c 0.011,-0.0387 0.0184,-0.0766 0.0293,-0.11523 z m -594.9043,1.31054 c -0.46534,5.494 -0.69922,10.97657 -0.69922,16.44727 0,11.20842 1.37422,21.50239 4.11914,30.88086 2.74492,9.14971 6.86173,17.04028 12.35156,23.67383 5.71851,6.40484 12.92293,11.43781 21.615239,15.09765 8.692308,3.43116 18.871212,5.14649 30.537109,5.14649 13.03836,0 24.70461,-1.48728 34.998047,-4.46094 10.29344,-3.20239 18.414156,-6.63308 24.3613281,-10.29297 l -4.8046871,-33.96875 c -4.574937,2.74492 -10.407087,5.37642 -17.498047,7.89258 -7.091183,2.51621 -15.897813,3.77344 -26.419922,3.77344 -6.862292,0 -12.694441,-1.02918 -17.498047,-3.08789 -4.574934,-2.05869 -8.350633,-4.91824 -11.324219,-8.57813 -2.744917,-3.88863 -4.803321,-8.34854 -6.175781,-13.38086 -1.143357,-5.03236 -1.714844,-10.6364 -1.714844,-16.8125 0,-2.06541 0.05787,-4.13959 0.140625,-6.21875 -13.995291,-1.8021 -27.991891,-3.83565 -41.988281,-6.11133 z m 548.875,2.5 c -9.17709,0.75433 -18.35454,1.50654 -27.53516,2.24219 l -7.83789,33.36524 h 26.84766 z m -45.46875,3.64454 c -9.36846,0.73262 -18.73752,1.46234 -28.10938,2.1582 l -15.40234,64.03125 c -0.19192,-0.79948 -0.38875,-1.59896 -0.5664,-2.39844 -0.92229,-5.16641 -1.38282,-10.42641 -1.38282,-15.77734 0,-3.32127 0.18508,-6.54882 0.55469,-9.68555 0.36961,-3.32127 0.92268,-6.64357 1.66016,-9.96484 l 6.21093,-25.54297 c -11.4812,0.83535 -22.96524,1.63328 -34.45117,2.39062 l -5.52734,22.875 c -0.73748,3.13676 -1.29055,5.906 -1.66016,8.30469 -0.36787,2.39869 -0.73586,4.88945 -1.10547,7.47266 -2.58326,3.13675 -5.62904,5.90404 -9.13476,8.30273 -3.50573,2.21417 -7.84128,3.32031 -13.00782,3.32031 l -0.002,0.002 c -2.76772,0 -5.25848,-0.36943 -7.47265,-1.10743 -2.21505,-0.73805 -4.15274,-2.02985 -5.8125,-3.875 -1.47636,-1.84515 -2.67538,-4.3359 -3.59766,-7.47265 -0.73748,-3.13673 -1.10547,-7.10494 -1.10547,-11.90235 0,-6.82702 0.92249,-13.4697 2.76758,-19.92773 0.35419,-1.12694 0.74367,-2.22278 1.14844,-3.30469 -11.56805,0.63184 -23.13886,1.2056 -34.71094,1.71289 -1.97942,7.62234 -2.9707,15.71779 -2.9707,24.28711 0,16.42185 3.50595,28.97038 10.51757,37.64258 7.01145,8.48774 16.60523,12.82337 28.78321,13.00781 H 254 c 9.9638,0 18.08185,-1.47552 24.35547,-4.42773 6.27345,-2.95224 11.25496,-5.81236 14.94531,-8.58008 0.18306,0.55355 0.46047,1.38316 0.83008,2.49024 0.36961,0.92263 0.83014,2.02874 1.38281,3.32031 0.55442,1.29159 1.10749,2.49253 1.66016,3.59961 0.55267,1.10715 1.0132,2.02956 1.38281,2.76758 l 23.01367,-3.83594 -0.39062,1.62109 h 27.67773 z M 3.0683594,896.16602 c -2.09323745,7.80987 -3.14453127,16.11865 -3.14453127,24.92968 0,16.42185 3.50612647,28.97038 10.51757787,37.64258 7.011623,8.48774 16.607177,12.82337 28.785156,13.00781 9.963803,0 18.083979,-1.47552 24.357422,-4.42773 6.273618,-2.95224 11.255133,-5.81236 14.945313,-8.58008 0.183063,0.55355 0.458515,1.38316 0.828125,2.49024 0.36961,0.92263 0.832093,2.02874 1.384766,3.32031 0.552671,1.29159 1.105742,2.49253 1.660156,3.59961 0.552673,1.10715 1.0132,2.02956 1.382812,2.76758 l 26.433594,-4.40625 -0.52344,2.1914 h 34.04297 l 16.69141,-69.98437 c -11.3709,0.25382 -22.74323,0.42883 -34.11719,0.51172 l -14.50586,60.64843 c -0.85427,-2.96306 -1.62279,-5.9256 -2.28125,-8.88867 -0.92228,-5.16641 -1.38281,-10.42641 -1.38281,-15.77734 0,-3.32127 0.18312,-6.54882 0.55273,-9.68555 0.36961,-3.32127 0.92463,-6.64357 1.66211,-9.96484 l 3.95313,-16.26367 c -11.26569,0.0181 -22.532509,-0.0657 -33.800784,-0.24024 l -3.919922,16.22656 c -0.737477,3.13676 -1.290545,5.906 -1.660156,8.30469 -0.367867,2.39869 -0.737815,4.88945 -1.107422,7.47266 -2.583267,3.13675 -5.627089,5.90404 -9.132813,8.30273 -3.505895,2.21417 -7.841455,3.32031 -13.007812,3.32031 l -0.002,0.002 c -2.767721,0 -5.258478,-0.36943 -7.472657,-1.10743 -2.21505,-0.73805 -4.152738,-2.02985 -5.8125,-3.875 -1.476352,-1.84515 -2.675373,-4.3359 -3.597656,-7.47265 -0.737478,-3.13673 -1.107422,-7.10494 -1.107422,-11.90235 0,-6.82702 0.922313,-13.4697 2.767578,-19.92773 0.05956,-0.18953 0.126505,-0.37229 0.1875,-0.56055 -11.191273,-0.44864 -22.383022,-0.99373 -33.5761716,-1.67382 z"
           id="path957"
           transform="scale(0.26458333)" />
      </g>
    </g>
  </g>
</svg>
