<?xml version="1.0" encoding="UTF-8" standalone="no"?>
<!-- Created with Inkscape (http://www.inkscape.org/) -->

<svg
   xmlns:dc="http://purl.org/dc/elements/1.1/"
   xmlns:cc="http://creativecommons.org/ns#"
   xmlns:rdf="http://www.w3.org/1999/02/22-rdf-syntax-ns#"
   xmlns:svg="http://www.w3.org/2000/svg"
   xmlns="http://www.w3.org/2000/svg"
   xmlns:sodipodi="http://sodipodi.sourceforge.net/DTD/sodipodi-0.dtd"
   xmlns:inkscape="http://www.inkscape.org/namespaces/inkscape"
   width="210mm"
   height="297mm"
   viewBox="0 0 210 297"
   version="1.1"
   id="svg998"
   inkscape:version="0.92.3 (2405546, 2018-03-11)"
   sodipodi:docname="falha.svg"
   inkscape:export-filename="C:\Users\Isleimar\Documents\Projetos\ProjetoPW1\Leriado\arquivos_diversos\falha.png"
   inkscape:export-xdpi="96"
   inkscape:export-ydpi="96">
  <defs
     id="defs992" />
  <sodipodi:namedview
     id="base"
     pagecolor="#ffffff"
     bordercolor="#666666"
     borderopacity="1.0"
     inkscape:pageopacity="0.0"
     inkscape:pageshadow="2"
     inkscape:zoom="1.4"
     inkscape:cx="365.636"
     inkscape:cy="633.80174"
     inkscape:document-units="mm"
     inkscape:current-layer="layer1"
     showgrid="false"
     inkscape:window-width="1920"
     inkscape:window-height="1018"
     inkscape:window-x="-8"
     inkscape:window-y="-8"
     inkscape:window-maximized="1" />
  <metadata
     id="metadata995">
    <rdf:RDF>
      <cc:Work
         rdf:about="">
        <dc:format>image/svg+xml</dc:format>
        <dc:type
           rdf:resource="http://purl.org/dc/dcmitype/StillImage" />
        <dc:title></dc:title>
      </cc:Work>
    </rdf:RDF>
  </metadata>
  <g
     inkscape:label="Camada 1"
     inkscape:groupmode="layer"
     id="layer1">
    <g
       id="g1211"
       transform="translate(59.007184,-239.50105)">
      <path
         sodipodi:nodetypes="cscscccccccccccscccccccccczzcsccc"
         inkscape:connector-curvature="0"
         id="path934"
         style="font-style:normal;font-variant:normal;font-weight:normal;font-stretch:normal;font-size:10.58333302px;line-height:1.25;font-family:Alakita;-inkscape-font-specification:'Alakita, Normal';font-variant-ligatures:normal;font-variant-caps:normal;font-variant-numeric:normal;font-feature-settings:normal;text-align:start;letter-spacing:0px;word-spacing:0px;writing-mode:lr-tb;text-anchor:start;fill:#338000;fill-opacity:1;stroke:none;stroke-width:0.26458332"
         d="m 81.947645,185.34299 c 0,-0.23989 0.01764,-0.52917 0.05292,-0.86784 0.03528,-0.33867 0.08467,-0.70555 0.148167,-1.10066 0.0635,-0.39511 0.137583,-0.80434 0.22225,-1.22767 0.08467,-0.42333 0.172861,-0.83256 0.264583,-1.22767 0.09878,-0.40217 0.197556,-0.77964 0.296334,-1.13241 0.105833,-0.35278 0.208139,-0.65617 0.306916,-0.91017 0.09878,-0.26105 0.239889,-0.43744 0.423334,-0.52917 0.1905,-0.0917 0.391583,-0.12345 0.60325,-0.0952 0.211667,0.0212 0.419805,0.0882 0.624416,0.20109 0.204611,0.10583 0.517602,0.49912 0.255613,0.87498 -0.275167,0.55739 -0.273252,0.57493 -0.477863,1.08293 -0.204611,0.50095 -0.384527,1.00189 -0.53975,1.50284 -0.155222,0.50094 -0.296333,1.01247 -0.423333,1.53458 -0.127,0.51505 -0.254,1.06539 -0.381,1.651 0.127,-0.007 0.236361,-0.0106 0.328083,-0.0106 0.09878,0 0.194028,0.007 0.28575,0.0212 0.09172,0.007 0.183445,0.0247 0.275167,0.0529 0.214347,0.0393 0.117832,0.0445 0.343742,-0.0308 0.0099,-0.26793 0.203647,-0.611 0.264332,-0.87702 0.0635,-0.10583 0.228464,-0.73746 0.242575,-0.88563 0.09207,-0.4123 0.02001,-0.49741 0.413101,-0.79186 0.162277,-0.0141 0.296333,0.007 0.402166,0.0635 0.112889,0.0494 0.190501,0.13407 0.232834,0.254 0.04939,0.11289 0.04939,0.254 0,0.42333 -0.112889,0.39511 -0.509717,2.48992 -0.756661,2.68042 -0.30884,0.36288 -0.573251,0.27119 -0.946823,0.24107 -0.373572,-0.0301 -0.53727,-0.0286 -0.727799,-0.0534 -0.190529,-0.0248 -0.377473,-0.0317 -0.560917,-0.0106 0.103803,1.53679 0.261316,0.82272 -0.100789,1.06717 -0.366622,0.24749 -0.638383,0.12172 -1.234678,0.033 0.06559,-0.77887 0.123111,-1.60938 0.164079,-1.93338 z" />
      <path
         inkscape:connector-curvature="0"
         id="path936"
         style="font-style:normal;font-variant:normal;font-weight:normal;font-stretch:normal;font-size:10.58333302px;line-height:1.25;font-family:Alakita;-inkscape-font-specification:'Alakita, Normal';font-variant-ligatures:normal;font-variant-caps:normal;font-variant-numeric:normal;font-feature-settings:normal;text-align:start;letter-spacing:0px;word-spacing:0px;writing-mode:lr-tb;text-anchor:start;fill:#338000;fill-opacity:1;stroke:none;stroke-width:0.26458332"
         d="m 89.785264,181.42715 q 0.116417,-0.0212 0.211667,0.0212 0.105833,0.0423 0.169333,0.127 0.0635,0.0741 0.08467,0.17992 0.03175,0.10583 -0.01058,0.21166 -0.243416,0.67734 -0.687916,1.12184 -0.4445,0.43391 -1.11125,0.70908 -0.03175,0.34925 -0.01058,0.635 0.03175,0.27517 0.105833,0.46567 0.105833,0.254 0.296333,0.32808 0.201084,0.0635 0.41275,0.0318 0.22225,-0.0423 0.433917,-0.15875 0.22225,-0.127 0.370416,-0.26458 0.1905,-0.17992 0.34925,-0.43392 0.169334,-0.254 0.306917,-0.46567 0.09525,-0.17991 0.254,-0.20108 0.15875,-0.0318 0.296333,0.0423 0.137584,0.0741 0.201084,0.23284 0.0635,0.14816 -0.04233,0.3175 -0.15875,0.28575 -0.359833,0.58208 -0.201083,0.29633 -0.433917,0.51858 -0.359833,0.33867 -0.878416,0.55034 -0.518583,0.20108 -1.04775,0.21166 -0.518583,0.0212 -0.973667,-0.1905 -0.455083,-0.21166 -0.687916,-0.73025 -0.1905,-0.43391 -0.201084,-1.016 -0.02117,-0.58208 0.116417,-1.16416 0.148167,-0.59267 0.423333,-1.10067 0.28575,-0.51858 0.66675,-0.80433 0.211667,-0.15875 0.455084,-0.23284 0.243416,-0.0847 0.47625,-0.0635 0.243416,0.0212 0.455083,0.15875 0.211666,0.127 0.359833,0.381 z m -0.582083,0.8255 q -0.03175,-0.0635 -0.04233,-0.127 0,-0.0741 -0.01058,-0.14816 -0.306916,0.33866 -0.455083,0.75141 0.148167,-0.10583 0.264583,-0.21166 0.127,-0.11642 0.243417,-0.26459 z" />
      <path
         inkscape:connector-curvature="0"
         id="path938"
         style="font-style:normal;font-variant:normal;font-weight:normal;font-stretch:normal;font-size:10.58333302px;line-height:1.25;font-family:Alakita;-inkscape-font-specification:'Alakita, Normal';font-variant-ligatures:normal;font-variant-caps:normal;font-variant-numeric:normal;font-feature-settings:normal;text-align:start;letter-spacing:0px;word-spacing:0px;writing-mode:lr-tb;text-anchor:start;fill:#338000;fill-opacity:1;stroke:none;stroke-width:0.26458332"
         d="m 93.079161,181.2049 q 0.243417,-0.3175 0.687917,-0.24341 0.455083,0.0741 0.889,0.42333 -0.127,0.24342 -0.28575,0.635 -0.148167,0.39158 -0.28575,0.8255 -0.137584,0.42333 -0.243417,0.83608 -0.105833,0.40217 -0.137583,0.68792 -0.02117,0.28575 0.127,0.42333 0.148166,0.13759 0.391583,0.11642 0.254,-0.0318 0.550333,-0.21167 0.296334,-0.1905 0.560917,-0.55033 0.09525,-0.16933 0.254,-0.1905 0.15875,-0.0318 0.28575,0.0423 0.137583,0.0741 0.201083,0.22225 0.07408,0.14817 -0.02117,0.33867 -0.148167,0.27517 -0.41275,0.55033 -0.264584,0.26459 -0.592667,0.48684 -0.3175,0.22225 -0.677333,0.37041 -0.359834,0.14817 -0.6985,0.1905 -0.328084,0.0318 -0.624417,-0.0529 -0.28575,-0.0953 -0.47625,-0.37042 -0.169333,-0.24342 -0.211666,-0.66675 -0.04233,-0.42333 0,-0.91017 0.05292,-0.49741 0.15875,-1.00541 0.105833,-0.51859 0.222249,-0.9525 -0.127,0.0423 -0.253999,0.0741 -0.116417,0.0212 -0.254,0.0423 -0.148167,0.635 -0.402167,1.16417 -0.254,0.51858 -0.550333,1.0795 -0.09525,0.17992 -0.264584,0.21167 -0.15875,0.0212 -0.296333,-0.0423 -0.127,-0.0741 -0.1905,-0.22225 -0.07408,-0.14816 0.02117,-0.32808 0.243416,-0.46567 0.4445,-0.87842 0.211666,-0.42333 0.359833,-0.93133 -0.211667,-0.0318 -0.381,-0.127 -0.169333,-0.0952 -0.264583,-0.28575 -0.116417,-0.21167 -0.09525,-0.45508 0.01058,-0.254 0.105833,-0.48684 0.105833,-0.24341 0.264583,-0.4445 0.169334,-0.20108 0.359834,-0.30691 0.243416,-0.11642 0.486833,-0.0953 0.254,0.0212 0.402167,0.24341 0.179916,0.21167 0.1905,0.49742 0.01058,0.28575 -0.01058,0.52917 0.201083,-0.0529 0.370417,-0.10584 0.179916,-0.0635 0.296333,-0.127 z m -1.524,0.35984 q 0.02117,-0.10584 0.03175,-0.22225 0.01058,-0.11642 0.02117,-0.23284 -0.03175,0.0423 -0.08467,0.11642 -0.04233,0.0741 -0.07408,0.14817 -0.03175,0.0741 -0.02117,0.13758 0.02117,0.0529 0.127,0.0529 z" />
      <path
         inkscape:connector-curvature="0"
         id="path940"
         style="font-style:normal;font-variant:normal;font-weight:normal;font-stretch:normal;font-size:10.58333302px;line-height:1.25;font-family:Alakita;-inkscape-font-specification:'Alakita, Normal';font-variant-ligatures:normal;font-variant-caps:normal;font-variant-numeric:normal;font-feature-settings:normal;text-align:start;letter-spacing:0px;word-spacing:0px;writing-mode:lr-tb;text-anchor:start;fill:#338000;fill-opacity:1;stroke:none;stroke-width:0.26458332"
         d="m 95.66414,181.37424 q 0.07408,-0.23284 0.254,-0.33867 0.179917,-0.10583 0.41275,-0.0952 0.232834,0.0106 0.486834,0.127 0.254,0.11642 0.486833,0.3175 -0.127,0.24342 -0.28575,0.635 -0.148167,0.39158 -0.296333,0.8255 -0.137584,0.42333 -0.243417,0.83608 -0.09525,0.40217 -0.127,0.68792 -0.02117,0.28575 0.116417,0.42333 0.137583,0.127 0.359833,0.0847 0.22225,-0.0423 0.486833,-0.26458 0.264583,-0.23284 0.497417,-0.66675 0.09525,-0.17992 0.254,-0.21167 0.169333,-0.0318 0.306916,0.0423 0.137584,0.0741 0.201084,0.22225 0.07408,0.14817 -0.02117,0.32809 -0.148167,0.33866 -0.402167,0.65616 -0.254,0.30692 -0.560916,0.56092 -0.306917,0.24342 -0.645583,0.40217 -0.338667,0.15875 -0.66675,0.21166 -0.3175,0.0423 -0.592667,-0.0529 -0.275167,-0.10584 -0.465667,-0.37042 -0.148166,-0.21167 -0.201083,-0.55033 -0.04233,-0.34925 -0.02117,-0.75142 0.01058,-0.41275 0.08467,-0.85725 0.07408,-0.45508 0.169333,-0.86783 0.105834,-0.41275 0.211667,-0.762 0.116417,-0.34925 0.201083,-0.5715 z m 0.582084,-2.032 q 0.03175,-0.24342 0.179916,-0.41275 0.148167,-0.17992 0.338667,-0.27517 0.1905,-0.10583 0.402166,-0.11642 0.211667,-0.0212 0.370417,0.0529 0.15875,0.0635 0.232833,0.22225 0.08467,0.15875 0.03175,0.40217 -0.07408,0.3175 -0.232833,0.55033 -0.15875,0.22225 -0.34925,0.35983 -0.1905,0.127 -0.391583,0.15875 -0.1905,0.0212 -0.338667,-0.0635 -0.148166,-0.0952 -0.22225,-0.30691 -0.07408,-0.22225 -0.02117,-0.5715 z" />
      <path
         inkscape:connector-curvature="0"
         id="path942"
         style="font-style:normal;font-variant:normal;font-weight:normal;font-stretch:normal;font-size:10.58333302px;line-height:1.25;font-family:Alakita;-inkscape-font-specification:'Alakita, Normal';font-variant-ligatures:normal;font-variant-caps:normal;font-variant-numeric:normal;font-feature-settings:normal;text-align:start;letter-spacing:0px;word-spacing:0px;writing-mode:lr-tb;text-anchor:start;fill:#338000;fill-opacity:1;stroke:none;stroke-width:0.26458332"
         d="m 100.68709,182.29499 q -0.0952,-0.0106 -0.17992,-0.0741 -0.0847,-0.0741 -0.15875,-0.14816 -0.0741,-0.0741 -0.14816,-0.13759 -0.0741,-0.0635 -0.15875,-0.0635 -0.21167,0 -0.412754,0.23284 -0.1905,0.22225 -0.34925,0.53975 -0.148166,0.30691 -0.264583,0.62441 -0.105833,0.30692 -0.137583,0.47625 -0.0635,0.30692 -0.0635,0.56092 0,0.45508 0.15875,0.70908 0.15875,0.24342 0.370416,0.24342 0.243417,0 0.4445,-0.29633 0.201084,-0.29634 0.359834,-0.74084 0.15875,-0.4445 0.28575,-0.96308 0.13758,-0.51858 0.254,-0.96308 z m 2.65642,1.64041 q 0.0529,-0.11641 0.14816,-0.16933 0.0953,-0.0529 0.1905,-0.0529 0.16934,0 0.29634,0.11642 0.13758,0.11642 0.13758,0.29633 0,0.10584 -0.0423,0.1905 -0.1905,0.40217 -0.47625,0.74084 -0.27517,0.33866 -0.60325,0.59266 -0.3175,0.24342 -0.67733,0.39159 -0.35984,0.13758 -0.71967,0.13758 -0.33867,0 -0.67733,-0.13758 -0.32809,-0.14817 -0.61384,-0.47625 -0.28575,0.27516 -0.656163,0.4445 -0.370417,0.15875 -0.740833,0.15875 -0.306917,0 -0.592667,-0.127 -0.275167,-0.127 -0.486833,-0.35984 -0.211667,-0.23283 -0.338667,-0.5715 -0.127,-0.33866 -0.127,-0.75141 0,-0.635 0.211667,-1.25942 0.22225,-0.62442 0.560916,-1.12183 0.34925,-0.49742 0.772584,-0.80434 0.433916,-0.30691 0.867833,-0.30691 0.677333,0 1.195913,0.635 0.15875,-0.14817 0.32809,-0.21167 0.17991,-0.0635 0.34925,-0.0635 0.17991,0 0.34925,0.0529 0.16933,0.0423 0.29633,0.10583 0.127,0.0635 0.1905,0.127 0.0741,0.0529 0.0741,0.0741 -0.127,0.40217 -0.26458,0.889 -0.127,0.47625 -0.23284,0.91017 -0.10583,0.43392 -0.16933,0.762 -0.0635,0.3175 -0.0635,0.39158 0,0.24342 0.0953,0.381 0.10583,0.13759 0.26458,0.13759 0.23284,0 0.53975,-0.26459 0.30692,-0.27516 0.61384,-0.85725 z" />
      <path
         inkscape:connector-curvature="0"
         id="path944"
         style="font-style:normal;font-variant:normal;font-weight:normal;font-stretch:normal;font-size:10.58333302px;line-height:1.25;font-family:Alakita;-inkscape-font-specification:'Alakita, Normal';font-variant-ligatures:normal;font-variant-caps:normal;font-variant-numeric:normal;font-feature-settings:normal;text-align:start;letter-spacing:0px;word-spacing:0px;writing-mode:lr-tb;text-anchor:start;fill:#338000;fill-opacity:1;stroke:none;stroke-width:0.26458332"
         d="m 109.2118,178.77074 q -0.254,0.56091 -0.51858,1.25941 -0.26459,0.68792 -0.49742,1.42875 -0.23283,0.73025 -0.40217,1.44992 -0.16933,0.70908 -0.23283,1.30175 -0.0423,0.43392 0.10583,0.59267 0.14817,0.15875 0.381,0.11641 0.24342,-0.0529 0.508,-0.27516 0.26459,-0.23284 0.46567,-0.58209 0.0953,-0.17991 0.254,-0.21166 0.16933,-0.0318 0.29633,0.0423 0.13759,0.0635 0.20109,0.22225 0.0741,0.14817 -0.0212,0.32808 -0.1905,0.37042 -0.49742,0.6985 -0.29633,0.32809 -0.66675,0.5715 -0.35983,0.23284 -0.75142,0.37042 -0.39158,0.127 -0.75141,0.10583 -0.35984,-0.0106 -0.66675,-0.17991 -0.30692,-0.16934 -0.49742,-0.55034 -0.26458,0.29634 -0.62442,0.48684 -0.34925,0.17991 -0.71966,0.22225 -0.35984,0.0423 -0.70909,-0.0847 -0.34925,-0.127 -0.61383,-0.46567 -0.23283,-0.28575 -0.30692,-0.67733 -0.0741,-0.39158 -0.0423,-0.81492 0.0423,-0.42333 0.17992,-0.85725 0.14817,-0.4445 0.34925,-0.83608 0.21167,-0.40217 0.47625,-0.71967 0.26458,-0.32808 0.55033,-0.52916 0.59267,-0.40217 1.143,-0.29634 0.56092,0.10584 0.98425,0.66675 0.16934,-0.71966 0.35984,-1.38641 0.1905,-0.66675 0.41275,-1.34409 0.0741,-0.23283 0.27516,-0.33866 0.21167,-0.11642 0.47625,-0.11642 0.26459,0 0.56092,0.10583 0.29633,0.0952 0.53975,0.29634 z m -2.96333,3.52425 q -0.14817,-0.0212 -0.23284,-0.14817 -0.24341,-0.34925 -0.48683,-0.28575 -0.23283,0.0529 -0.4445,0.3175 -0.20108,0.26458 -0.37042,0.61383 -0.15875,0.33867 -0.23283,0.56092 -0.23283,0.65617 -0.17992,1.143 0.0635,0.47625 0.26459,0.67733 0.21166,0.1905 0.49741,0.0529 0.28575,-0.14817 0.508,-0.73025 0.1905,-0.51858 0.34925,-1.0795 0.15875,-0.5715 0.32809,-1.12183 z" />
      <path
         inkscape:connector-curvature="0"
         id="path946"
         style="font-style:normal;font-variant:normal;font-weight:normal;font-stretch:normal;font-size:10.58333302px;line-height:1.25;font-family:Alakita;-inkscape-font-specification:'Alakita, Normal';font-variant-ligatures:normal;font-variant-caps:normal;font-variant-numeric:normal;font-feature-settings:normal;text-align:start;letter-spacing:0px;word-spacing:0px;writing-mode:lr-tb;text-anchor:start;fill:#338000;fill-opacity:1;stroke:none;stroke-width:0.26458332"
         d="m 110.42954,182.64424 q -0.10583,0.29633 -0.1905,0.65616 -0.0741,0.35984 -0.127,0.70909 -0.0423,0.33866 -0.0529,0.635 0,0.29633 0.0635,0.46566 0.0635,0.15875 0.1905,0.16934 0.127,0 0.34925,-0.23284 -0.0318,-0.11641 -0.0212,-0.26458 0.0106,-0.15875 0.0635,-0.28575 0.0635,-0.13758 0.16934,-0.22225 0.10583,-0.0952 0.26458,-0.0952 0.127,-0.37042 0.20108,-0.8255 0.0847,-0.46567 0.0318,-0.86783 -0.0423,-0.3175 -0.15875,-0.41275 -0.11641,-0.10584 -0.26458,-0.0529 -0.13758,0.0423 -0.28575,0.22225 -0.13758,0.16933 -0.23283,0.40217 z m 1.2065,2.24366 q 0.15875,0.0212 0.32809,-0.0423 0.17991,-0.0741 0.34925,-0.20108 0.16933,-0.13759 0.3175,-0.3175 0.14816,-0.17992 0.26458,-0.39159 0.10583,-0.17991 0.27517,-0.20108 0.16933,-0.0318 0.30691,0.0423 0.13759,0.0741 0.1905,0.23284 0.0529,0.14816 -0.0635,0.3175 -0.13758,0.32808 -0.42333,0.64558 -0.28575,0.30692 -0.64558,0.508 -0.34925,0.20108 -0.74084,0.254 -0.39158,0.0423 -0.74083,-0.14817 -0.16933,0.20109 -0.41275,0.35984 -0.24342,0.14816 -0.52917,0.20108 -0.27516,0.0529 -0.5715,-0.0212 -0.28575,-0.0847 -0.53975,-0.34925 -0.3175,-0.33866 -0.41275,-1.02658 -0.10583,-0.6985 0.16934,-1.57692 0.24341,-0.81491 0.635,-1.3335 0.39158,-0.51858 0.8255,-0.74083 0.4445,-0.23283 0.85725,-0.17992 0.42333,0.0529 0.70908,0.381 0.29633,0.32809 0.41275,0.91017 0.11642,0.58208 -0.0635,1.41817 -0.0847,0.37041 -0.22225,0.6985 -0.127,0.3175 -0.27517,0.56091 z" />
      <path
         style="color:#000000;font-style:normal;font-variant:normal;font-weight:normal;font-stretch:normal;font-size:medium;line-height:normal;font-family:sans-serif;font-variant-ligatures:normal;font-variant-position:normal;font-variant-caps:normal;font-variant-numeric:normal;font-variant-alternates:normal;font-feature-settings:normal;text-indent:0;text-align:start;text-decoration:none;text-decoration-line:none;text-decoration-style:solid;text-decoration-color:#000000;letter-spacing:normal;word-spacing:normal;text-transform:none;writing-mode:lr-tb;direction:ltr;text-orientation:mixed;dominant-baseline:auto;baseline-shift:baseline;text-anchor:start;white-space:normal;shape-padding:0;clip-rule:nonzero;display:inline;overflow:visible;visibility:visible;opacity:1;isolation:auto;mix-blend-mode:normal;color-interpolation:sRGB;color-interpolation-filters:linearRGB;solid-color:#000000;solid-opacity:1;vector-effect:none;fill:#ff6600;fill-opacity:1;fill-rule:evenodd;stroke:none;stroke-width:0.96499997;stroke-linecap:butt;stroke-linejoin:miter;stroke-miterlimit:4;stroke-dasharray:none;stroke-dashoffset:0;stroke-opacity:1;color-rendering:auto;image-rendering:auto;shape-rendering:auto;text-rendering:auto;enable-background:accumulate"
         d="m 72.594336,178.25651 c -1.013149,0.91742 -1.677576,2.21197 -1.716734,3.67595 -0.07018,2.62338 1.994472,4.97479 4.674419,5.02758 2.37348,0.0468 4.498504,-1.83012 4.52504,-4.26235 0.02317,-2.12342 -1.668139,-4.02331 -3.853064,-4.02248 -1.873148,7.1e-4 -3.546979,1.50553 -3.517141,3.44377 0.02497,1.62262 1.346124,3.07193 3.038577,3.01043 1.371773,-0.0498 2.598854,-1.18794 2.500959,-2.63615 -0.07577,-1.12055 -1.036656,-2.12851 -2.243393,-1.9845 -0.434818,0.0519 -0.830938,0.26359 -1.113705,0.58974 -0.282745,0.32618 -0.447824,0.79792 -0.340469,1.28292 0.06946,0.31377 0.243851,0.5792 0.509739,0.77011 0.265888,0.19091 0.692688,0.28213 1.056879,0.0941 0.816526,-0.39951 0.856178,-0.88745 0.619316,-1.21641 -0.654671,-0.74254 -1.186114,-0.13771 -1.149824,0.21674 l -0.09349,-0.0737 c -0.03703,-0.16726 0.0079,-0.30389 0.126785,-0.44104 0.118912,-0.13712 0.317626,-0.24265 0.498963,-0.26427 0.60171,-0.0718 1.124224,0.47937 1.165569,1.09084 0.05816,0.86027 -0.713307,1.57533 -1.572579,1.60654 -1.115045,0.0405 -2.01947,-0.95269 -2.036509,-2.05985 -0.02105,-1.36793 1.195983,-2.46459 2.551281,-2.46511 1.619707,-6.2e-4 2.904297,1.44324 2.886801,3.0469 -0.02041,1.87082 -1.687588,3.34499 -3.539753,3.30849 -2.121479,-0.0418 -3.785016,-1.93596 -3.728824,-4.03675 0.06345,-2.37185 2.182877,-4.22417 4.532369,-4.14776 3.801429,-0.14311 4.766964,3.64112 5.530841,5.06582 0.116589,-3.12289 -2.323744,-5.92802 -5.499923,-6.03131 -1.436592,-0.0467 -2.798891,0.49448 -3.812018,1.41191 z"
         id="path948"
         inkscape:connector-curvature="0"
         sodipodi:nodetypes="cccsscccccccccccccccsccccccscc" />
      <g
         transform="translate(30.659303,58.501833)"
         id="g968"
         style="fill:#ff6600">
        <path
           transform="rotate(-5.7205083,41.243307,117.84071)"
           inkscape:transform-center-y="0.11910671"
           inkscape:transform-center-x="-0.24651416"
           d="m 42.300959,118.3774 -1.019312,0.68611 -1.019312,0.68612 -0.08454,-1.22581 -0.08454,-1.22581 1.103851,0.5397 z"
           inkscape:randomized="0"
           inkscape:rounded="0"
           inkscape:flatsided="false"
           sodipodi:arg2="0.97834106"
           sodipodi:arg1="-0.068856489"
           sodipodi:r2="0.7094022"
           sodipodi:r1="1.4188044"
           sodipodi:cy="118.47501"
           sodipodi:cx="40.885517"
           sodipodi:sides="3"
           id="path950"
           style="fill:#ff6600;stroke-width:0.96499997;stroke-miterlimit:4;stroke-dasharray:none"
           sodipodi:type="star" />
        <path
           transform="rotate(32.48515,43.980608,117.26429)"
           sodipodi:type="star"
           style="fill:#ff6600;stroke-width:0.96499997;stroke-miterlimit:4;stroke-dasharray:none"
           id="path952"
           sodipodi:sides="3"
           sodipodi:cx="44.26918"
           sodipodi:cy="116.70192"
           sodipodi:r1="1.4188044"
           sodipodi:r2="0.7094022"
           sodipodi:arg1="-0.068856489"
           sodipodi:arg2="0.97834106"
           inkscape:flatsided="false"
           inkscape:rounded="0"
           inkscape:randomized="0"
           d="m 45.684623,116.6043 -1.019313,0.68612 -1.019312,0.68612 -0.08454,-1.22581 -0.08454,-1.22581 1.103851,0.53969 z"
           inkscape:transform-center-x="-0.018075229"
           inkscape:transform-center-y="-0.33893399" />
        <path
           inkscape:transform-center-y="0.0082255082"
           inkscape:transform-center-x="0.34755023"
           d="m 45.684623,116.6043 -1.019313,0.68612 -1.019312,0.68612 -0.08454,-1.22581 -0.08454,-1.22581 1.103851,0.53969 z"
           inkscape:randomized="0"
           inkscape:rounded="0"
           inkscape:flatsided="false"
           sodipodi:arg2="0.97834106"
           sodipodi:arg1="-0.068856489"
           sodipodi:r2="0.7094022"
           sodipodi:r1="1.4188044"
           sodipodi:cy="116.70192"
           sodipodi:cx="44.26918"
           sodipodi:sides="3"
           id="path954"
           style="fill:#ff6600;stroke-width:0.96499997;stroke-miterlimit:4;stroke-dasharray:none"
           sodipodi:type="star"
           transform="rotate(64.609615,45.438511,120.51505)" />
        <path
           transform="rotate(-45.963043,37.129422,122.02422)"
           sodipodi:type="star"
           style="fill:#ff6600;stroke-width:0.96499997;stroke-miterlimit:4;stroke-dasharray:none"
           id="path956"
           sodipodi:sides="3"
           sodipodi:cx="38.802643"
           sodipodi:cy="123.09582"
           sodipodi:r1="1.4188044"
           sodipodi:r2="0.7094022"
           sodipodi:arg1="-0.068856489"
           sodipodi:arg2="0.97834106"
           inkscape:flatsided="false"
           inkscape:rounded="0"
           inkscape:randomized="0"
           d="m 40.218085,122.9982 -1.019312,0.68612 -1.019313,0.68611 -0.08454,-1.2258 -0.08454,-1.22581 1.103851,0.53969 z"
           inkscape:transform-center-x="0.24156536"
           inkscape:transform-center-y="0.12430518" />
        <path
           inkscape:transform-center-y="-0.15946269"
           inkscape:transform-center-x="0.20752635"
           d="m 40.218085,122.9982 -1.019312,0.68612 -1.019313,0.68611 -0.08454,-1.2258 -0.08454,-1.22581 1.103851,0.53969 z"
           inkscape:randomized="0"
           inkscape:rounded="0"
           inkscape:flatsided="false"
           sodipodi:arg2="0.97834106"
           sodipodi:arg1="-0.068856489"
           sodipodi:r2="0.7094022"
           sodipodi:r1="1.4188044"
           sodipodi:cy="123.09582"
           sodipodi:cx="38.802643"
           sodipodi:sides="3"
           id="path958"
           style="fill:#ff6600;stroke-width:0.96499997;stroke-miterlimit:4;stroke-dasharray:none"
           sodipodi:type="star"
           transform="rotate(-69.045038,40.484886,124.04402)" />
        <path
           transform="rotate(-109.61085,42.012713,125.0221)"
           sodipodi:type="star"
           style="fill:#ff6600;stroke-width:0.96499997;stroke-miterlimit:4;stroke-dasharray:none"
           id="path960"
           sodipodi:sides="3"
           sodipodi:cx="38.802643"
           sodipodi:cy="123.09582"
           sodipodi:r1="1.4188044"
           sodipodi:r2="0.7094022"
           sodipodi:arg1="-0.068856489"
           sodipodi:arg2="0.97834106"
           inkscape:flatsided="false"
           inkscape:rounded="0"
           inkscape:randomized="0"
           d="m 40.218085,122.9982 -1.019312,0.68612 -1.019313,0.68611 -0.08454,-1.2258 -0.08454,-1.22581 1.103851,0.53969 z"
           inkscape:transform-center-x="-0.28350982"
           inkscape:transform-center-y="-0.079618527" />
        <path
           inkscape:transform-center-y="0.31814524"
           inkscape:transform-center-x="0.041521599"
           d="m 40.218085,122.9982 -1.019312,0.68612 -1.019313,0.68611 -0.08454,-1.2258 -0.08454,-1.22581 1.103851,0.53969 z"
           inkscape:randomized="0"
           inkscape:rounded="0"
           inkscape:flatsided="false"
           sodipodi:arg2="0.97834106"
           sodipodi:arg1="-0.068856489"
           sodipodi:r2="0.7094022"
           sodipodi:r1="1.4188044"
           sodipodi:cy="123.09582"
           sodipodi:cx="38.802643"
           sodipodi:sides="3"
           id="path962"
           style="fill:#ff6600;stroke-width:0.96499997;stroke-miterlimit:4;stroke-dasharray:none"
           sodipodi:type="star"
           transform="rotate(-149.41002,42.975369,125.56574)" />
        <path
           transform="rotate(-172.43625,44.124864,125.62017)"
           sodipodi:type="star"
           style="fill:#ff6600;stroke-width:0.96499997;stroke-miterlimit:4;stroke-dasharray:none"
           id="path964"
           sodipodi:sides="3"
           sodipodi:cx="38.802643"
           sodipodi:cy="123.09582"
           sodipodi:r1="1.4188044"
           sodipodi:r2="0.7094022"
           sodipodi:arg1="-0.068856489"
           sodipodi:arg2="0.97834106"
           inkscape:flatsided="false"
           inkscape:rounded="0"
           inkscape:randomized="0"
           d="m 40.218085,122.9982 -1.019312,0.68612 -1.019313,0.68611 -0.08454,-1.2258 -0.08454,-1.22581 1.103851,0.53969 z"
           inkscape:transform-center-x="0.31521936"
           inkscape:transform-center-y="0.044780114" />
        <path
           transform="rotate(87.994342,45.903909,122.13585)"
           sodipodi:type="star"
           style="fill:#ff6600;stroke-width:0.96499997;stroke-miterlimit:4;stroke-dasharray:none"
           id="path966"
           sodipodi:sides="3"
           sodipodi:cx="44.26918"
           sodipodi:cy="116.70192"
           sodipodi:r1="1.4188044"
           sodipodi:r2="0.7094022"
           sodipodi:arg1="-0.068856489"
           sodipodi:arg2="0.97834106"
           inkscape:flatsided="false"
           inkscape:rounded="0"
           inkscape:randomized="0"
           d="m 45.684623,116.6043 -1.019313,0.68612 -1.019312,0.68612 -0.08454,-1.22581 -0.08454,-1.22581 1.103851,0.53969 z"
           inkscape:transform-center-x="0.073541236"
           inkscape:transform-center-y="0.28909929" />
      </g>
      <rect
         style="fill:#ff6600;stroke-width:1.25370109;stroke-miterlimit:4;stroke-dasharray:none"
         id="rect1032"
         width="14.966709"
         height="14.966709"
         x="51.094364"
         y="174.92368"
         ry="1.6889237"
         rx="1.2991722" />
      <g
         transform="matrix(1.2991722,0,0,1.2991722,31.456029,22.335773)"
         id="g1083">
        <path
           style="color:#000000;font-style:normal;font-variant:normal;font-weight:normal;font-stretch:normal;font-size:medium;line-height:normal;font-family:sans-serif;font-variant-ligatures:normal;font-variant-position:normal;font-variant-caps:normal;font-variant-numeric:normal;font-variant-alternates:normal;font-feature-settings:normal;text-indent:0;text-align:start;text-decoration:none;text-decoration-line:none;text-decoration-style:solid;text-decoration-color:#000000;letter-spacing:normal;word-spacing:normal;text-transform:none;writing-mode:lr-tb;direction:ltr;text-orientation:mixed;dominant-baseline:auto;baseline-shift:baseline;text-anchor:start;white-space:normal;shape-padding:0;clip-rule:nonzero;display:inline;overflow:visible;visibility:visible;opacity:1;isolation:auto;mix-blend-mode:normal;color-interpolation:sRGB;color-interpolation-filters:linearRGB;solid-color:#000000;solid-opacity:1;vector-effect:none;fill:#ffffff;fill-opacity:1;fill-rule:evenodd;stroke:none;stroke-width:0.56021696;stroke-linecap:butt;stroke-linejoin:miter;stroke-miterlimit:4;stroke-dasharray:none;stroke-dashoffset:0;stroke-opacity:1;color-rendering:auto;image-rendering:auto;shape-rendering:auto;text-rendering:auto;enable-background:accumulate"
           d="m 18.723182,121.08645 c -0.582739,0.53755 -0.964902,1.2961 -0.987424,2.1539 -0.04037,1.53716 1.147172,2.91496 2.688615,2.94589 1.365169,0.0274 2.587432,-1.07234 2.602695,-2.4975 0.01333,-1.24421 -0.959474,-2.35744 -2.21619,-2.35696 -1.077391,4.2e-4 -2.040139,0.88216 -2.022977,2.01787 0.01436,0.95077 0.774259,1.79998 1.747718,1.76394 0.789011,-0.0291 1.494799,-0.69607 1.438492,-1.54464 -0.04358,-0.65658 -0.59626,-1.24719 -1.290347,-1.1628 -0.250097,0.0303 -0.477936,0.15445 -0.640577,0.34555 -0.162628,0.19113 -0.257577,0.46754 -0.195828,0.75173 0.03995,0.18384 0.140257,0.33937 0.293189,0.45124 0.152933,0.11188 0.398417,0.16531 0.607891,0.0551 0.469646,-0.23409 0.492453,-0.52 0.356217,-0.71275 -0.376552,-0.43508 -0.682225,-0.0807 -0.661353,0.127 l -0.05377,-0.0432 c -0.0213,-0.0981 0.0046,-0.17806 0.07292,-0.25843 0.06839,-0.0803 0.182691,-0.14217 0.286991,-0.15484 0.34609,-0.0421 0.646628,0.28088 0.670408,0.63917 0.03345,0.50407 -0.410277,0.92306 -0.90451,0.94135 -0.641347,0.0237 -1.161551,-0.55823 -1.171351,-1.20696 -0.01211,-0.80153 0.6879,-1.44412 1.467435,-1.44443 0.931617,-3.5e-4 1.670483,0.84566 1.66042,1.78532 -0.01178,1.0962 -0.970661,1.95998 -2.035982,1.93859 -1.220224,-0.0245 -2.177051,-1.13436 -2.144731,-2.36531 0.03649,-1.38977 1.255539,-2.47513 2.606911,-2.43035 2.186492,-0.0838 2.741844,2.13349 3.181209,2.96829 0.06706,-1.82985 -1.336563,-3.4735 -3.163426,-3.53402 -0.826293,-0.0274 -1.609855,0.28973 -2.192581,0.8273 z"
           id="path1036"
           inkscape:connector-curvature="0"
           sodipodi:nodetypes="cccsscccccccccccccccsccccccscc" />
        <path
           sodipodi:type="star"
           style="fill:#ffffff;stroke-width:0.96499997;stroke-miterlimit:4;stroke-dasharray:none"
           id="path1038"
           sodipodi:sides="3"
           sodipodi:cx="40.885517"
           sodipodi:cy="118.47501"
           sodipodi:r1="1.4188044"
           sodipodi:r2="0.7094022"
           sodipodi:arg1="-0.068856489"
           sodipodi:arg2="0.97834106"
           inkscape:flatsided="false"
           inkscape:rounded="0"
           inkscape:randomized="0"
           d="m 42.300959,118.3774 -1.019312,0.68611 -1.019312,0.68612 -0.08454,-1.22581 -0.08454,-1.22581 1.103851,0.5397 z"
           inkscape:transform-center-x="-0.24651416"
           inkscape:transform-center-y="0.11910671"
           transform="matrix(0.57231185,-0.05840462,0.05733122,0.58302715,-12.034667,53.669429)" />
        <path
           inkscape:transform-center-y="-0.33893399"
           inkscape:transform-center-x="-0.018075229"
           d="m 45.684623,116.6043 -1.019313,0.68612 -1.019312,0.68612 -0.08454,-1.22581 -0.08454,-1.22581 1.103851,0.53969 z"
           inkscape:randomized="0"
           inkscape:rounded="0"
           inkscape:flatsided="false"
           sodipodi:arg2="0.97834106"
           sodipodi:arg1="-0.068856489"
           sodipodi:r2="0.7094022"
           sodipodi:r1="1.4188044"
           sodipodi:cy="116.70192"
           sodipodi:cx="44.26918"
           sodipodi:sides="3"
           id="path1040"
           style="fill:#ffffff;stroke-width:0.96499997;stroke-miterlimit:4;stroke-dasharray:none"
           sodipodi:type="star"
           transform="matrix(0.48517881,0.31470002,-0.30891623,0.49426273,34.786132,47.827145)" />
        <path
           transform="matrix(0.24662611,0.52934713,-0.5196184,0.25124365,72.153814,67.200593)"
           sodipodi:type="star"
           style="fill:#ffffff;stroke-width:0.96499997;stroke-miterlimit:4;stroke-dasharray:none"
           id="path1042"
           sodipodi:sides="3"
           sodipodi:cx="44.26918"
           sodipodi:cy="116.70192"
           sodipodi:r1="1.4188044"
           sodipodi:r2="0.7094022"
           sodipodi:arg1="-0.068856489"
           sodipodi:arg2="0.97834106"
           inkscape:flatsided="false"
           inkscape:rounded="0"
           inkscape:randomized="0"
           d="m 45.684623,116.6043 -1.019313,0.68612 -1.019312,0.68612 -0.08454,-1.22581 -0.08454,-1.22581 1.103851,0.53969 z"
           inkscape:transform-center-x="0.34755023"
           inkscape:transform-center-y="0.0082255082" />
        <path
           inkscape:transform-center-y="0.12430518"
           inkscape:transform-center-x="0.24156536"
           d="m 40.218085,122.9982 -1.019312,0.68612 -1.019313,0.68611 -0.08454,-1.2258 -0.08454,-1.22581 1.103851,0.53969 z"
           inkscape:randomized="0"
           inkscape:rounded="0"
           inkscape:flatsided="false"
           sodipodi:arg2="0.97834106"
           sodipodi:arg1="-0.068856489"
           sodipodi:r2="0.7094022"
           sodipodi:r1="1.4188044"
           sodipodi:cy="123.09582"
           sodipodi:cx="38.802643"
           sodipodi:sides="3"
           id="path1044"
           style="fill:#ffffff;stroke-width:0.96499997;stroke-miterlimit:4;stroke-dasharray:none"
           sodipodi:type="star"
           transform="matrix(0.39981779,-0.42123106,0.41348936,0.40730351,-49.341612,88.355442)" />
        <path
           transform="matrix(0.20570258,-0.54719184,0.53713515,0.20955391,-57.067157,119.75885)"
           sodipodi:type="star"
           style="fill:#ffffff;stroke-width:0.96499997;stroke-miterlimit:4;stroke-dasharray:none"
           id="path1046"
           sodipodi:sides="3"
           sodipodi:cx="38.802643"
           sodipodi:cy="123.09582"
           sodipodi:r1="1.4188044"
           sodipodi:r2="0.7094022"
           sodipodi:arg1="-0.068856489"
           sodipodi:arg2="0.97834106"
           inkscape:flatsided="false"
           inkscape:rounded="0"
           inkscape:randomized="0"
           d="m 40.218085,122.9982 -1.019312,0.68612 -1.019313,0.68611 -0.08454,-1.2258 -0.08454,-1.22581 1.103851,0.53969 z"
           inkscape:transform-center-x="0.20752635"
           inkscape:transform-center-y="-0.15946269" />
        <path
           inkscape:transform-center-y="-0.079618527"
           inkscape:transform-center-x="-0.28350982"
           d="m 40.218085,122.9982 -1.019312,0.68612 -1.019313,0.68611 -0.08454,-1.2258 -0.08454,-1.22581 1.103851,0.53969 z"
           inkscape:randomized="0"
           inkscape:rounded="0"
           inkscape:flatsided="false"
           sodipodi:arg2="0.97834106"
           sodipodi:arg1="-0.068856489"
           sodipodi:r2="0.7094022"
           sodipodi:r1="1.4188044"
           sodipodi:cy="123.09582"
           sodipodi:cx="38.802643"
           sodipodi:sides="3"
           id="path1048"
           style="fill:#ffffff;stroke-width:0.96499997;stroke-miterlimit:4;stroke-dasharray:none"
           sodipodi:type="star"
           transform="matrix(-0.19304638,-0.55195679,0.54181253,-0.19666076,-40.860276,171.94901)" />
        <path
           transform="matrix(-0.49512957,-0.29818216,0.29270195,-0.5043998,3.8465977,200.64123)"
           sodipodi:type="star"
           style="fill:#ffffff;stroke-width:0.96499997;stroke-miterlimit:4;stroke-dasharray:none"
           id="path1050"
           sodipodi:sides="3"
           sodipodi:cx="38.802643"
           sodipodi:cy="123.09582"
           sodipodi:r1="1.4188044"
           sodipodi:r2="0.7094022"
           sodipodi:arg1="-0.068856489"
           sodipodi:arg2="0.97834106"
           inkscape:flatsided="false"
           inkscape:rounded="0"
           inkscape:randomized="0"
           d="m 40.218085,122.9982 -1.019312,0.68612 -1.019313,0.68611 -0.08454,-1.2258 -0.08454,-1.22581 1.103851,0.53969 z"
           inkscape:transform-center-x="0.041521599"
           inkscape:transform-center-y="0.31814524" />
        <path
           inkscape:transform-center-y="0.044780114"
           inkscape:transform-center-x="0.31521936"
           d="m 40.218085,122.9982 -1.019312,0.68612 -1.019313,0.68611 -0.08454,-1.2258 -0.08454,-1.22581 1.103851,0.53969 z"
           inkscape:randomized="0"
           inkscape:rounded="0"
           inkscape:flatsided="false"
           sodipodi:arg2="0.97834106"
           sodipodi:arg1="-0.068856489"
           sodipodi:r2="0.7094022"
           sodipodi:r1="1.4188044"
           sodipodi:cy="123.09582"
           sodipodi:cx="38.802643"
           sodipodi:sides="3"
           id="path1052"
           style="fill:#ffffff;stroke-width:0.96499997;stroke-miterlimit:4;stroke-dasharray:none"
           sodipodi:type="star"
           transform="matrix(-0.57017165,-0.07712752,0.07571001,-0.58084688,35.550949,200.93253)" />
        <path
           inkscape:transform-center-y="0.28909929"
           inkscape:transform-center-x="0.073541236"
           d="m 45.684623,116.6043 -1.019313,0.68612 -1.019312,0.68612 -0.08454,-1.22581 -0.08454,-1.22581 1.103851,0.53969 z"
           inkscape:randomized="0"
           inkscape:rounded="0"
           inkscape:flatsided="false"
           sodipodi:arg2="0.97834106"
           sodipodi:arg1="-0.068856489"
           sodipodi:r2="0.7094022"
           sodipodi:r1="1.4188044"
           sodipodi:cy="116.70192"
           sodipodi:cx="44.26918"
           sodipodi:sides="3"
           id="path1054"
           style="fill:#ffffff;stroke-width:0.96499997;stroke-miterlimit:4;stroke-dasharray:none"
           sodipodi:type="star"
           transform="matrix(0.02013013,0.58558622,-0.57482388,0.02050702,90.288537,93.09634)" />
        <path
           transform="matrix(-0.52462894,0.23623895,-0.24309019,-0.53293739,74.473536,181.60679)"
           sodipodi:type="star"
           style="fill:#ffffff;stroke-width:0.96499997;stroke-miterlimit:4;stroke-dasharray:none"
           id="path1067"
           sodipodi:sides="3"
           sodipodi:cx="38.802643"
           sodipodi:cy="123.09582"
           sodipodi:r1="1.4188044"
           sodipodi:r2="0.7094022"
           sodipodi:arg1="-0.068856489"
           sodipodi:arg2="0.97834106"
           inkscape:flatsided="false"
           inkscape:rounded="0"
           inkscape:randomized="0"
           d="m 40.218085,122.9982 -1.019312,0.68612 -1.019313,0.68611 -0.08454,-1.2258 -0.08454,-1.22581 1.103851,0.53969 z"
           inkscape:transform-center-x="0.11236579"
           inkscape:transform-center-y="-0.10661253" />
        <path
           inkscape:transform-center-y="0.1021763"
           inkscape:transform-center-x="-0.14241905"
           d="m 40.218085,122.9982 -1.019312,0.68612 -1.019313,0.68611 -0.08454,-1.2258 -0.08454,-1.22581 1.103851,0.53969 z"
           inkscape:randomized="0"
           inkscape:rounded="0"
           inkscape:flatsided="false"
           sodipodi:arg2="0.97834106"
           sodipodi:arg1="-0.068856489"
           sodipodi:r2="0.7094022"
           sodipodi:r1="1.4188044"
           sodipodi:cy="123.09582"
           sodipodi:cx="38.802643"
           sodipodi:sides="3"
           id="path1069"
           style="fill:#ffffff;stroke-width:0.96499997;stroke-miterlimit:4;stroke-dasharray:none"
           sodipodi:type="star"
           transform="matrix(-0.34584973,0.45981771,-0.46982479,-0.3498282,95.940068,148.575)" />
      </g>
      <path
         sodipodi:nodetypes="sssssssss"
         inkscape:connector-curvature="0"
         id="rect1100"
         d="M 5.4573767,174.8907 H 47.245871 c 0.719741,0 1.299172,0.75326 1.299172,1.68893 v 11.58886 c 0,0.93566 -0.579431,1.68892 -1.299172,1.68892 H 5.4573767 c -0.7197414,0 -1.2991721,-0.75326 -1.2991721,-1.68892 v -11.58886 c 0,-0.93567 0.5794307,-1.68893 1.2991721,-1.68893 z"
         style="fill:#ff6600;fill-opacity:1;stroke-width:1.25370109;stroke-miterlimit:4;stroke-dasharray:none" />
      <g
         transform="translate(0,0.54974879)"
         id="g1157">
        <path
           sodipodi:nodetypes="cscscccccccccccscccccccccczzcsccc"
           inkscape:connector-curvature="0"
           id="path1103"
           style="font-style:normal;font-variant:normal;font-weight:normal;font-stretch:normal;font-size:10.58333302px;line-height:1.25;font-family:Alakita;-inkscape-font-specification:'Alakita, Normal';font-variant-ligatures:normal;font-variant-caps:normal;font-variant-numeric:normal;font-feature-settings:normal;text-align:start;letter-spacing:0px;word-spacing:0px;writing-mode:lr-tb;text-anchor:start;fill:#ffffff;fill-opacity:1;stroke:none;stroke-width:0.24013573"
           d="m 17.241072,184.96642 c 0,-0.21773 0.01601,-0.48028 0.04803,-0.78765 0.03202,-0.30738 0.07685,-0.64036 0.134476,-0.99896 0.05763,-0.3586 0.124871,-0.73002 0.201714,-1.11424 0.07685,-0.38421 0.156889,-0.75563 0.240136,-1.11423 0.08965,-0.36501 0.179301,-0.7076 0.268952,-1.02777 0.09605,-0.32019 0.188907,-0.59554 0.278557,-0.82607 0.08965,-0.23693 0.217723,-0.39702 0.384218,-0.48028 0.172898,-0.0832 0.355401,-0.11204 0.54751,-0.0864 0.192108,0.0192 0.381014,0.08 0.566719,0.18251 0.185705,0.096 0.469776,0.453 0.231995,0.79413 -0.249742,0.50589 -0.248004,0.52181 -0.433709,0.98287 -0.185705,0.45466 -0.348996,0.90931 -0.489877,1.36397 -0.140879,0.45466 -0.268951,0.91892 -0.384217,1.39279 -0.115265,0.46746 -0.23053,0.96694 -0.345795,1.49844 0.115265,-0.006 0.214521,-0.01 0.297768,-0.01 0.08965,0 0.1761,0.006 0.259347,0.0192 0.08324,0.006 0.166494,0.0224 0.249741,0.048 0.194541,0.0357 0.106944,0.0404 0.31198,-0.028 0.009,-0.24317 0.18483,-0.55454 0.239908,-0.79598 0.05763,-0.096 0.207354,-0.66932 0.220161,-0.8038 0.08356,-0.3742 0.01816,-0.45145 0.37493,-0.71869 0.147283,-0.0128 0.268952,0.006 0.365006,0.0576 0.102458,0.0448 0.172898,0.12168 0.21132,0.23053 0.04483,0.10246 0.04483,0.23053 0,0.38422 -0.102458,0.3586 -0.462619,2.25985 -0.686745,2.43275 -0.280303,0.32935 -0.520283,0.24613 -0.859337,0.21879 -0.339053,-0.0273 -0.487626,-0.026 -0.66055,-0.0485 -0.172924,-0.0225 -0.342594,-0.0288 -0.509088,-0.01 0.09421,1.39479 0.237171,0.7467 -0.09148,0.96857 -0.332746,0.22462 -0.579396,0.11047 -1.120593,0.03 0.05953,-0.7069 0.111735,-1.46067 0.148918,-1.75474 z" />
        <path
           inkscape:connector-curvature="0"
           id="path1105"
           style="font-style:normal;font-variant:normal;font-weight:normal;font-stretch:normal;font-size:10.58333302px;line-height:1.25;font-family:Alakita;-inkscape-font-specification:'Alakita, Normal';font-variant-ligatures:normal;font-variant-caps:normal;font-variant-numeric:normal;font-feature-settings:normal;text-align:start;letter-spacing:0px;word-spacing:0px;writing-mode:lr-tb;text-anchor:start;fill:#ffffff;fill-opacity:1;stroke:none;stroke-width:0.24013573"
           d="m 24.354492,181.4124 q 0.10566,-0.0192 0.192109,0.0192 0.09605,0.0384 0.153687,0.11527 0.05763,0.0673 0.07685,0.16329 0.02882,0.0961 -0.0096,0.19211 -0.220925,0.61475 -0.624353,1.01818 -0.403428,0.39381 -1.00857,0.64356 -0.02882,0.31698 -0.0096,0.57632 0.02882,0.24975 0.09605,0.42265 0.09605,0.23053 0.268951,0.29776 0.182504,0.0576 0.374612,0.0289 0.201714,-0.0384 0.393823,-0.14408 0.201714,-0.11526 0.33619,-0.24013 0.172897,-0.1633 0.316979,-0.39383 0.153687,-0.23053 0.278558,-0.42264 0.08645,-0.16329 0.23053,-0.1825 0.144081,-0.0289 0.268952,0.0384 0.124871,0.0673 0.182503,0.21133 0.05763,0.13447 -0.03842,0.28816 -0.144082,0.25935 -0.326585,0.5283 -0.182503,0.26895 -0.393823,0.47066 -0.326584,0.30738 -0.79725,0.49949 -0.470665,0.1825 -0.950937,0.1921 -0.470666,0.0192 -0.8837,-0.1729 -0.413033,-0.1921 -0.624352,-0.66277 -0.172898,-0.39382 -0.182504,-0.92212 -0.01921,-0.5283 0.10566,-1.05659 0.134476,-0.53791 0.384217,-0.99897 0.259346,-0.47067 0.605142,-0.73001 0.192109,-0.14408 0.413034,-0.21133 0.220924,-0.0769 0.432244,-0.0576 0.220925,0.0192 0.413033,0.14408 0.192108,0.11527 0.326585,0.3458 z m -0.528298,0.74923 q -0.02882,-0.0576 -0.03842,-0.11527 0,-0.0673 -0.0096,-0.13447 -0.278557,0.30737 -0.413034,0.68198 0.134477,-0.0961 0.240136,-0.1921 0.115265,-0.10567 0.220925,-0.24014 z" />
        <path
           inkscape:connector-curvature="0"
           id="path1107"
           style="font-style:normal;font-variant:normal;font-weight:normal;font-stretch:normal;font-size:10.58333302px;line-height:1.25;font-family:Alakita;-inkscape-font-specification:'Alakita, Normal';font-variant-ligatures:normal;font-variant-caps:normal;font-variant-numeric:normal;font-feature-settings:normal;text-align:start;letter-spacing:0px;word-spacing:0px;writing-mode:lr-tb;text-anchor:start;fill:#ffffff;fill-opacity:1;stroke:none;stroke-width:0.24013573"
           d="m 27.344032,181.21069 q 0.220925,-0.28817 0.624353,-0.22092 0.413033,0.0673 0.806856,0.38421 -0.115265,0.22093 -0.259346,0.57633 -0.134477,0.3554 -0.259347,0.74922 -0.124871,0.38422 -0.220925,0.75883 -0.09605,0.36501 -0.12487,0.62435 -0.01921,0.25935 0.115265,0.38422 0.134475,0.12487 0.3554,0.10566 0.230531,-0.0289 0.499482,-0.19211 0.268953,-0.1729 0.509088,-0.49948 0.08645,-0.15368 0.230531,-0.1729 0.144081,-0.0289 0.259346,0.0384 0.124871,0.0673 0.182503,0.20172 0.06724,0.13448 -0.01921,0.30737 -0.134476,0.24975 -0.374611,0.49948 -0.240137,0.24015 -0.537905,0.44186 -0.288163,0.20171 -0.614747,0.33618 -0.326585,0.13448 -0.633958,0.1729 -0.297769,0.0289 -0.566721,-0.048 -0.259347,-0.0865 -0.432244,-0.33619 -0.153687,-0.22093 -0.192108,-0.60515 -0.03842,-0.38421 0,-0.82607 0.04803,-0.45144 0.144081,-0.91251 0.09605,-0.47067 0.201713,-0.86448 -0.115265,0.0384 -0.230529,0.0673 -0.10566,0.0192 -0.230531,0.0384 -0.134476,0.57633 -0.365006,1.0566 -0.23053,0.47066 -0.499482,0.97975 -0.08645,0.1633 -0.240137,0.19212 -0.144081,0.0192 -0.268951,-0.0384 -0.115265,-0.0673 -0.172898,-0.20171 -0.06724,-0.13447 0.01921,-0.29776 0.220924,-0.42265 0.403428,-0.79726 0.192108,-0.38421 0.326584,-0.84527 -0.192109,-0.0289 -0.345795,-0.11527 -0.153687,-0.0864 -0.240136,-0.25934 -0.10566,-0.19212 -0.08645,-0.41304 0.0096,-0.23053 0.09605,-0.44185 0.09605,-0.22092 0.240136,-0.40343 0.153687,-0.1825 0.326585,-0.27855 0.220924,-0.10566 0.44185,-0.0865 0.23053,0.0192 0.365006,0.22091 0.163292,0.19212 0.172898,0.45146 0.0096,0.25935 -0.0096,0.48028 0.182502,-0.048 0.33619,-0.0961 0.163292,-0.0576 0.268952,-0.11527 z m -1.383182,0.32659 q 0.01921,-0.0961 0.02882,-0.20172 0.0096,-0.10566 0.01921,-0.21132 -0.02882,0.0384 -0.07685,0.10566 -0.03842,0.0673 -0.06724,0.13448 -0.02882,0.0673 -0.01921,0.12487 0.01921,0.048 0.115265,0.048 z" />
        <path
           inkscape:connector-curvature="0"
           id="path1109"
           style="font-style:normal;font-variant:normal;font-weight:normal;font-stretch:normal;font-size:10.58333302px;line-height:1.25;font-family:Alakita;-inkscape-font-specification:'Alakita, Normal';font-variant-ligatures:normal;font-variant-caps:normal;font-variant-numeric:normal;font-feature-settings:normal;text-align:start;letter-spacing:0px;word-spacing:0px;writing-mode:lr-tb;text-anchor:start;fill:#ffffff;fill-opacity:1;stroke:none;stroke-width:0.24013573"
           d="m 29.690158,181.36438 q 0.06724,-0.21132 0.23053,-0.30738 0.163293,-0.096 0.374612,-0.0864 0.21132,0.01 0.44185,0.11527 0.230531,0.10566 0.44185,0.28816 -0.115265,0.22093 -0.259347,0.57632 -0.134476,0.3554 -0.268952,0.74923 -0.124871,0.38421 -0.220925,0.75882 -0.08645,0.36501 -0.115265,0.62436 -0.01921,0.25935 0.10566,0.38421 0.12487,0.11527 0.326584,0.0769 0.201715,-0.0384 0.44185,-0.24014 0.240135,-0.21132 0.451455,-0.60514 0.08645,-0.16329 0.230531,-0.19211 0.153686,-0.0289 0.278557,0.0384 0.124871,0.0673 0.182503,0.20172 0.06723,0.13448 -0.01921,0.29777 -0.134477,0.30737 -0.365007,0.59553 -0.23053,0.27856 -0.509087,0.50909 -0.278558,0.22093 -0.585931,0.36501 -0.307374,0.14408 -0.605142,0.1921 -0.288163,0.0384 -0.537905,-0.048 -0.249741,-0.0961 -0.422639,-0.33619 -0.134475,-0.19211 -0.182503,-0.49948 -0.03842,-0.31698 -0.01921,-0.68199 0.0096,-0.37461 0.07685,-0.77804 0.06724,-0.41303 0.153686,-0.78764 0.09605,-0.37461 0.192109,-0.69159 0.10566,-0.31698 0.182503,-0.51869 z m 0.528299,-1.84424 q 0.02882,-0.22093 0.163292,-0.37461 0.134476,-0.1633 0.307374,-0.24975 0.172898,-0.096 0.365006,-0.10566 0.192109,-0.0192 0.33619,0.048 0.144081,0.0576 0.211319,0.20172 0.07685,0.14408 0.02882,0.365 -0.06724,0.28817 -0.211319,0.49948 -0.144081,0.20172 -0.316979,0.32659 -0.172898,0.11526 -0.355401,0.14408 -0.172897,0.0192 -0.307374,-0.0576 -0.134475,-0.0864 -0.201714,-0.27855 -0.06723,-0.20171 -0.01921,-0.51869 z" />
        <path
           inkscape:connector-curvature="0"
           id="path1111"
           style="font-style:normal;font-variant:normal;font-weight:normal;font-stretch:normal;font-size:10.58333302px;line-height:1.25;font-family:Alakita;-inkscape-font-specification:'Alakita, Normal';font-variant-ligatures:normal;font-variant-caps:normal;font-variant-numeric:normal;font-feature-settings:normal;text-align:start;letter-spacing:0px;word-spacing:0px;writing-mode:lr-tb;text-anchor:start;fill:#ffffff;fill-opacity:1;stroke:none;stroke-width:0.24013573"
           d="m 34.248986,182.20005 q -0.08645,-0.01 -0.163293,-0.0673 -0.07685,-0.0673 -0.144081,-0.13447 -0.06723,-0.0673 -0.134477,-0.12488 -0.06724,-0.0576 -0.144081,-0.0576 -0.192108,0 -0.374612,0.21133 -0.172898,0.20171 -0.316979,0.48987 -0.134476,0.27855 -0.240136,0.56672 -0.09605,0.27856 -0.12487,0.43224 -0.05763,0.27856 -0.05763,0.50909 0,0.41303 0.144081,0.64356 0.144081,0.22093 0.336189,0.22093 0.220926,0 0.403428,-0.26895 0.182504,-0.26896 0.326586,-0.67238 0.144081,-0.40343 0.259346,-0.8741 0.124871,-0.47066 0.230531,-0.87409 z m 2.410962,1.48884 q 0.04803,-0.10566 0.134476,-0.15369 0.08645,-0.048 0.172898,-0.048 0.153686,0 0.268952,0.10567 0.124871,0.10566 0.124871,0.26894 0,0.0961 -0.03842,0.1729 -0.172898,0.36501 -0.432244,0.67239 -0.249741,0.30737 -0.54751,0.5379 -0.288163,0.22092 -0.614747,0.3554 -0.326584,0.12487 -0.653169,0.12487 -0.307374,0 -0.614748,-0.12487 -0.297768,-0.13448 -0.557114,-0.43224 -0.259347,0.24973 -0.595537,0.40343 -0.336191,0.14408 -0.67238,0.14408 -0.278558,0 -0.537904,-0.11527 -0.249742,-0.11526 -0.44185,-0.32659 -0.192109,-0.21131 -0.307374,-0.51869 -0.115265,-0.30737 -0.115265,-0.68198 0,-0.57633 0.192109,-1.14305 0.201714,-0.56672 0.509087,-1.01817 0.316979,-0.45146 0.701197,-0.73002 0.393822,-0.27855 0.787645,-0.27855 0.614747,0 1.085414,0.57632 0.144081,-0.13448 0.297768,-0.19211 0.163292,-0.0576 0.316979,-0.0576 0.163293,0 0.316979,0.048 0.153687,0.0384 0.268952,0.096 0.115265,0.0576 0.172898,0.11527 0.06724,0.048 0.06724,0.0673 -0.115265,0.36501 -0.240137,0.80686 -0.115265,0.43224 -0.211319,0.82607 -0.09605,0.39382 -0.153686,0.69159 -0.05763,0.28816 -0.05763,0.3554 0,0.22092 0.08645,0.34579 0.09605,0.12488 0.240135,0.12488 0.211319,0 0.489877,-0.24014 0.278558,-0.24974 0.557115,-0.77804 z" />
        <path
           inkscape:connector-curvature="0"
           id="path1113"
           style="font-style:normal;font-variant:normal;font-weight:normal;font-stretch:normal;font-size:10.58333302px;line-height:1.25;font-family:Alakita;-inkscape-font-specification:'Alakita, Normal';font-variant-ligatures:normal;font-variant-caps:normal;font-variant-numeric:normal;font-feature-settings:normal;text-align:start;letter-spacing:0px;word-spacing:0px;writing-mode:lr-tb;text-anchor:start;fill:#ffffff;fill-opacity:1;stroke:none;stroke-width:0.24013573"
           d="m 41.986009,179.00144 q -0.230531,0.50909 -0.470666,1.14304 -0.240136,0.62436 -0.451456,1.29674 -0.211319,0.66277 -0.365005,1.31594 -0.153688,0.64357 -0.21132,1.18147 -0.03842,0.39383 0.09605,0.53791 0.134476,0.14408 0.345796,0.10565 0.220924,-0.048 0.461061,-0.24973 0.240135,-0.21133 0.422638,-0.52831 0.08645,-0.16328 0.23053,-0.1921 0.153688,-0.0289 0.268953,0.0384 0.12487,0.0576 0.182503,0.20172 0.06723,0.13448 -0.01921,0.29776 -0.172898,0.33619 -0.451455,0.63396 -0.268952,0.29777 -0.605142,0.51869 -0.326585,0.21133 -0.681986,0.3362 -0.3554,0.11526 -0.681986,0.0961 -0.326584,-0.01 -0.605142,-0.16329 -0.278556,-0.15369 -0.451454,-0.49949 -0.240137,0.26896 -0.566721,0.44186 -0.316979,0.16329 -0.653169,0.20171 -0.326585,0.0384 -0.643564,-0.0769 -0.316979,-0.11527 -0.557114,-0.42264 -0.211321,-0.25935 -0.278558,-0.61475 -0.06723,-0.35539 -0.03842,-0.73962 0.03842,-0.38421 0.163292,-0.77804 0.134476,-0.40343 0.316979,-0.75882 0.192109,-0.36501 0.432244,-0.65318 0.240137,-0.29776 0.499483,-0.48026 0.537904,-0.36501 1.037387,-0.26896 0.509087,0.0961 0.893305,0.60514 0.153686,-0.65316 0.326584,-1.2583 0.172898,-0.60514 0.374612,-1.2199 0.06723,-0.21131 0.249741,-0.30737 0.192108,-0.10566 0.432244,-0.10566 0.240136,0 0.509088,0.096 0.268952,0.0864 0.489877,0.26896 z m -2.68952,3.19861 q -0.134477,-0.0192 -0.21132,-0.13448 -0.220925,-0.31698 -0.44185,-0.25934 -0.211319,0.048 -0.403428,0.28816 -0.182503,0.24013 -0.336189,0.55711 -0.144082,0.30738 -0.211321,0.50909 -0.211319,0.59554 -0.163291,1.03739 0.05763,0.43224 0.240135,0.61474 0.192109,0.1729 0.451456,0.048 0.259346,-0.13448 0.46106,-0.66278 0.172898,-0.47066 0.31698,-0.97975 0.144081,-0.5187 0.297768,-1.01818 z" />
        <path
           inkscape:connector-curvature="0"
           id="path1115"
           style="font-style:normal;font-variant:normal;font-weight:normal;font-stretch:normal;font-size:10.58333302px;line-height:1.25;font-family:Alakita;-inkscape-font-specification:'Alakita, Normal';font-variant-ligatures:normal;font-variant-caps:normal;font-variant-numeric:normal;font-feature-settings:normal;text-align:start;letter-spacing:0px;word-spacing:0px;writing-mode:lr-tb;text-anchor:start;fill:#ffffff;fill-opacity:1;stroke:none;stroke-width:0.24013573"
           d="m 43.091234,182.51703 q -0.09605,0.26895 -0.172898,0.59553 -0.06723,0.32659 -0.115265,0.64357 -0.03842,0.30737 -0.04803,0.57633 0,0.26895 0.05763,0.42263 0.05763,0.14408 0.172898,0.15369 0.115265,0 0.316979,-0.21132 -0.02882,-0.10566 -0.01921,-0.24013 0.0096,-0.14409 0.05763,-0.25935 0.05763,-0.12487 0.153686,-0.20171 0.09605,-0.0864 0.240136,-0.0864 0.115265,-0.33619 0.182503,-0.74922 0.07685,-0.42264 0.02882,-0.78764 -0.03842,-0.28817 -0.144082,-0.37462 -0.10566,-0.0961 -0.240136,-0.048 -0.12487,0.0384 -0.259347,0.20172 -0.12487,0.15368 -0.211319,0.36501 z m 1.095018,2.03635 q 0.144082,0.0192 0.297769,-0.0384 0.163292,-0.0673 0.316979,-0.1825 0.153687,-0.12488 0.288163,-0.28817 0.134476,-0.16329 0.240136,-0.3554 0.09605,-0.16329 0.24974,-0.1825 0.153688,-0.0289 0.278558,0.0384 0.124871,0.0673 0.172898,0.21132 0.04803,0.13447 -0.05763,0.28817 -0.12487,0.29776 -0.384216,0.58592 -0.259347,0.27856 -0.585932,0.46106 -0.316979,0.1825 -0.67238,0.23053 -0.355401,0.0384 -0.67238,-0.13447 -0.153687,0.1825 -0.374612,0.32659 -0.220925,0.13447 -0.480271,0.1825 -0.249742,0.048 -0.518694,-0.0192 -0.259346,-0.0769 -0.489877,-0.31698 -0.288162,-0.30737 -0.374611,-0.93173 -0.09605,-0.63396 0.153687,-1.43121 0.220924,-0.73961 0.576326,-1.21028 0.355401,-0.47067 0.749223,-0.67238 0.403428,-0.21132 0.778039,-0.1633 0.384218,0.048 0.643565,0.3458 0.268952,0.29777 0.374612,0.82607 0.105659,0.52829 -0.05763,1.28713 -0.07685,0.33618 -0.201714,0.63396 -0.115265,0.28816 -0.249742,0.50908 z" />
        <path
           style="color:#000000;font-style:normal;font-variant:normal;font-weight:normal;font-stretch:normal;font-size:medium;line-height:normal;font-family:sans-serif;font-variant-ligatures:normal;font-variant-position:normal;font-variant-caps:normal;font-variant-numeric:normal;font-variant-alternates:normal;font-feature-settings:normal;text-indent:0;text-align:start;text-decoration:none;text-decoration-line:none;text-decoration-style:solid;text-decoration-color:#000000;letter-spacing:normal;word-spacing:normal;text-transform:none;writing-mode:lr-tb;direction:ltr;text-orientation:mixed;dominant-baseline:auto;baseline-shift:baseline;text-anchor:start;white-space:normal;shape-padding:0;clip-rule:nonzero;display:inline;overflow:visible;visibility:visible;opacity:1;isolation:auto;mix-blend-mode:normal;color-interpolation:sRGB;color-interpolation-filters:linearRGB;solid-color:#000000;solid-opacity:1;vector-effect:none;fill:#ffffff;fill-opacity:1;fill-rule:evenodd;stroke:none;stroke-width:0.87583363;stroke-linecap:butt;stroke-linejoin:miter;stroke-miterlimit:4;stroke-dasharray:none;stroke-dashoffset:0;stroke-opacity:1;color-rendering:auto;image-rendering:auto;shape-rendering:auto;text-rendering:auto;enable-background:accumulate"
           d="m 8.752012,178.53473 c -0.9195337,0.83265 -1.5225674,2.00758 -1.5581072,3.33629 -0.063695,2.38098 1.8101821,4.51512 4.2425012,4.56303 2.154169,0.0425 4.08284,-1.66102 4.106924,-3.86851 0.02103,-1.92721 -1.514002,-3.65155 -3.497039,-3.6508 -1.700069,6.5e-4 -3.2192368,1.36642 -3.1921559,3.12557 0.022663,1.47269 1.2217419,2.78808 2.7578109,2.73226 1.245021,-0.0452 2.358719,-1.07817 2.26987,-2.39257 -0.06877,-1.01701 -0.940869,-1.93183 -2.036103,-1.80113 -0.394641,0.0471 -0.754159,0.23924 -1.010798,0.53525 -0.256619,0.29604 -0.406445,0.72419 -0.30901,1.16438 0.06304,0.28477 0.221319,0.52568 0.462639,0.69895 0.24132,0.17327 0.628684,0.25606 0.959223,0.0854 0.741079,-0.36259 0.777067,-0.80545 0.562091,-1.10401 -0.594179,-0.67393 -1.076516,-0.12499 -1.04358,0.19671 l -0.08485,-0.0669 c -0.03361,-0.1518 0.0072,-0.27581 0.11507,-0.40028 0.107924,-0.12445 0.288277,-0.22023 0.452859,-0.23986 0.546111,-0.0652 1.020345,0.43508 1.05787,0.99005 0.05279,0.78078 -0.647398,1.42977 -1.427273,1.4581 -1.012014,0.0368 -1.8328699,-0.86467 -1.8483345,-1.86952 -0.019105,-1.24154 1.0854735,-2.23686 2.3155415,-2.23734 1.470046,-5.6e-4 2.635939,1.30989 2.62006,2.76537 -0.01852,1.69795 -1.531654,3.03591 -3.212679,3.00278 -1.9254533,-0.0379 -3.4352787,-1.75707 -3.3842788,-3.66375 0.057587,-2.15269 1.9811778,-3.83386 4.1135758,-3.76451 3.450176,-0.12988 4.326495,3.30468 5.01979,4.59774 0.105816,-2.83433 -2.109029,-5.38027 -4.991728,-5.47401 -1.303851,-0.0424 -2.5402729,0.44879 -3.4597863,1.28145 z"
           id="path1117"
           inkscape:connector-curvature="0"
           sodipodi:nodetypes="cccsscccccccccccccccsccccccscc" />
        <g
           transform="matrix(0.90759966,0,0,0.90759966,-29.30821,69.845424)"
           id="g1137"
           style="fill:#ffffff">
          <path
             transform="rotate(-5.7205083,41.243307,117.84071)"
             inkscape:transform-center-y="0.11910671"
             inkscape:transform-center-x="-0.24651416"
             d="m 42.300959,118.3774 -1.019312,0.68611 -1.019312,0.68612 -0.08454,-1.22581 -0.08454,-1.22581 1.103851,0.5397 z"
             inkscape:randomized="0"
             inkscape:rounded="0"
             inkscape:flatsided="false"
             sodipodi:arg2="0.97834106"
             sodipodi:arg1="-0.068856489"
             sodipodi:r2="0.7094022"
             sodipodi:r1="1.4188044"
             sodipodi:cy="118.47501"
             sodipodi:cx="40.885517"
             sodipodi:sides="3"
             id="path1119"
             style="fill:#ffffff;stroke-width:0.96499997;stroke-miterlimit:4;stroke-dasharray:none"
             sodipodi:type="star" />
          <path
             transform="rotate(32.48515,43.980608,117.26429)"
             sodipodi:type="star"
             style="fill:#ffffff;stroke-width:0.96499997;stroke-miterlimit:4;stroke-dasharray:none"
             id="path1121"
             sodipodi:sides="3"
             sodipodi:cx="44.26918"
             sodipodi:cy="116.70192"
             sodipodi:r1="1.4188044"
             sodipodi:r2="0.7094022"
             sodipodi:arg1="-0.068856489"
             sodipodi:arg2="0.97834106"
             inkscape:flatsided="false"
             inkscape:rounded="0"
             inkscape:randomized="0"
             d="m 45.684623,116.6043 -1.019313,0.68612 -1.019312,0.68612 -0.08454,-1.22581 -0.08454,-1.22581 1.103851,0.53969 z"
             inkscape:transform-center-x="-0.018075229"
             inkscape:transform-center-y="-0.33893399" />
          <path
             inkscape:transform-center-y="0.0082255082"
             inkscape:transform-center-x="0.34755023"
             d="m 45.684623,116.6043 -1.019313,0.68612 -1.019312,0.68612 -0.08454,-1.22581 -0.08454,-1.22581 1.103851,0.53969 z"
             inkscape:randomized="0"
             inkscape:rounded="0"
             inkscape:flatsided="false"
             sodipodi:arg2="0.97834106"
             sodipodi:arg1="-0.068856489"
             sodipodi:r2="0.7094022"
             sodipodi:r1="1.4188044"
             sodipodi:cy="116.70192"
             sodipodi:cx="44.26918"
             sodipodi:sides="3"
             id="path1123"
             style="fill:#ffffff;stroke-width:0.96499997;stroke-miterlimit:4;stroke-dasharray:none"
             sodipodi:type="star"
             transform="rotate(64.609615,45.438511,120.51505)" />
          <path
             transform="rotate(-45.963043,37.129422,122.02422)"
             sodipodi:type="star"
             style="fill:#ffffff;stroke-width:0.96499997;stroke-miterlimit:4;stroke-dasharray:none"
             id="path1125"
             sodipodi:sides="3"
             sodipodi:cx="38.802643"
             sodipodi:cy="123.09582"
             sodipodi:r1="1.4188044"
             sodipodi:r2="0.7094022"
             sodipodi:arg1="-0.068856489"
             sodipodi:arg2="0.97834106"
             inkscape:flatsided="false"
             inkscape:rounded="0"
             inkscape:randomized="0"
             d="m 40.218085,122.9982 -1.019312,0.68612 -1.019313,0.68611 -0.08454,-1.2258 -0.08454,-1.22581 1.103851,0.53969 z"
             inkscape:transform-center-x="0.24156536"
             inkscape:transform-center-y="0.12430518" />
          <path
             inkscape:transform-center-y="-0.15946269"
             inkscape:transform-center-x="0.20752635"
             d="m 40.218085,122.9982 -1.019312,0.68612 -1.019313,0.68611 -0.08454,-1.2258 -0.08454,-1.22581 1.103851,0.53969 z"
             inkscape:randomized="0"
             inkscape:rounded="0"
             inkscape:flatsided="false"
             sodipodi:arg2="0.97834106"
             sodipodi:arg1="-0.068856489"
             sodipodi:r2="0.7094022"
             sodipodi:r1="1.4188044"
             sodipodi:cy="123.09582"
             sodipodi:cx="38.802643"
             sodipodi:sides="3"
             id="path1127"
             style="fill:#ffffff;stroke-width:0.96499997;stroke-miterlimit:4;stroke-dasharray:none"
             sodipodi:type="star"
             transform="rotate(-69.045038,40.484886,124.04402)" />
          <path
             transform="rotate(-109.61085,42.012713,125.0221)"
             sodipodi:type="star"
             style="fill:#ffffff;stroke-width:0.96499997;stroke-miterlimit:4;stroke-dasharray:none"
             id="path1129"
             sodipodi:sides="3"
             sodipodi:cx="38.802643"
             sodipodi:cy="123.09582"
             sodipodi:r1="1.4188044"
             sodipodi:r2="0.7094022"
             sodipodi:arg1="-0.068856489"
             sodipodi:arg2="0.97834106"
             inkscape:flatsided="false"
             inkscape:rounded="0"
             inkscape:randomized="0"
             d="m 40.218085,122.9982 -1.019312,0.68612 -1.019313,0.68611 -0.08454,-1.2258 -0.08454,-1.22581 1.103851,0.53969 z"
             inkscape:transform-center-x="-0.28350982"
             inkscape:transform-center-y="-0.079618527" />
          <path
             inkscape:transform-center-y="0.31814524"
             inkscape:transform-center-x="0.041521599"
             d="m 40.218085,122.9982 -1.019312,0.68612 -1.019313,0.68611 -0.08454,-1.2258 -0.08454,-1.22581 1.103851,0.53969 z"
             inkscape:randomized="0"
             inkscape:rounded="0"
             inkscape:flatsided="false"
             sodipodi:arg2="0.97834106"
             sodipodi:arg1="-0.068856489"
             sodipodi:r2="0.7094022"
             sodipodi:r1="1.4188044"
             sodipodi:cy="123.09582"
             sodipodi:cx="38.802643"
             sodipodi:sides="3"
             id="path1131"
             style="fill:#ffffff;stroke-width:0.96499997;stroke-miterlimit:4;stroke-dasharray:none"
             sodipodi:type="star"
             transform="rotate(-149.41002,42.975369,125.56574)" />
          <path
             transform="rotate(-172.43625,44.124864,125.62017)"
             sodipodi:type="star"
             style="fill:#ffffff;stroke-width:0.96499997;stroke-miterlimit:4;stroke-dasharray:none"
             id="path1133"
             sodipodi:sides="3"
             sodipodi:cx="38.802643"
             sodipodi:cy="123.09582"
             sodipodi:r1="1.4188044"
             sodipodi:r2="0.7094022"
             sodipodi:arg1="-0.068856489"
             sodipodi:arg2="0.97834106"
             inkscape:flatsided="false"
             inkscape:rounded="0"
             inkscape:randomized="0"
             d="m 40.218085,122.9982 -1.019312,0.68612 -1.019313,0.68611 -0.08454,-1.2258 -0.08454,-1.22581 1.103851,0.53969 z"
             inkscape:transform-center-x="0.31521936"
             inkscape:transform-center-y="0.044780114" />
          <path
             transform="rotate(87.994342,45.903909,122.13585)"
             sodipodi:type="star"
             style="fill:#ffffff;stroke-width:0.96499997;stroke-miterlimit:4;stroke-dasharray:none"
             id="path1135"
             sodipodi:sides="3"
             sodipodi:cx="44.26918"
             sodipodi:cy="116.70192"
             sodipodi:r1="1.4188044"
             sodipodi:r2="0.7094022"
             sodipodi:arg1="-0.068856489"
             sodipodi:arg2="0.97834106"
             inkscape:flatsided="false"
             inkscape:rounded="0"
             inkscape:randomized="0"
             d="m 45.684623,116.6043 -1.019313,0.68612 -1.019312,0.68612 -0.08454,-1.22581 -0.08454,-1.22581 1.103851,0.53969 z"
             inkscape:transform-center-x="0.073541236"
             inkscape:transform-center-y="0.28909929" />
        </g>
      </g>
    </g>
    <rect
       style="opacity:1;fill:#ff6600;fill-opacity:1;stroke:#ff0000;stroke-width:0.25357479;stroke-linecap:round;stroke-linejoin:round;stroke-miterlimit:4;stroke-dasharray:none;stroke-opacity:1;paint-order:stroke markers fill"
       id="rect1789"
       width="159.74643"
       height="59.746426"
       x="29.865404"
       y="77.126785"
       ry="6.3729515"
       inkscape:export-xdpi="96"
       inkscape:export-ydpi="96" />
    <g
       id="g1821"
       transform="matrix(1.0333405,0,0,1.0537952,29.670117,-19.568329)"
       inkscape:export-xdpi="96"
       inkscape:export-ydpi="96">
      <path
         inkscape:connector-curvature="0"
         id="path1661"
         style="font-style:normal;font-variant:normal;font-weight:normal;font-stretch:normal;font-size:42.91530228px;line-height:1.25;font-family:'Arial Rounded MT Bold';-inkscape-font-specification:'Arial Rounded MT Bold, Normal';font-variant-ligatures:normal;font-variant-caps:normal;font-variant-numeric:normal;font-feature-settings:normal;text-align:start;letter-spacing:0px;word-spacing:0px;writing-mode:lr-tb;text-anchor:start;fill:#f9f9f9;fill-opacity:1;stroke:none;stroke-width:1.07288253"
         d="m 53.650231,94.637288 q 4.856814,0 8.32901,1.917038 3.493498,1.89642 5.282851,5.421304 1.789352,3.50427 1.789352,8.24533 0,3.50426 -0.979883,6.36951 -0.979884,2.86525 -2.939651,4.96781 -1.959768,2.10255 -4.81421,3.21567 -2.854444,1.11313 -6.539659,1.11313 -3.663913,0 -6.560959,-1.13373 -2.897047,-1.15435 -4.835512,-3.2363 -1.938466,-2.08195 -2.939651,-5.00903 -0.979884,-2.92709 -0.979884,-6.32829 0,-3.48365 1.022487,-6.39013 1.043789,-2.90647 3.003556,-4.947194 1.959767,-2.04072 4.771607,-3.11261 2.81184,-1.092508 6.390546,-1.092508 z m 8.989366,15.542442 q 0,-3.31875 -1.107694,-5.75112 -1.107695,-2.43237 -3.173971,-3.66916 -2.044974,-1.257424 -4.707701,-1.257424 -1.895862,0 -3.5148,0.700864 -1.597636,0.68024 -2.769237,1.99949 -1.150298,1.31925 -1.831956,3.38058 -0.660356,2.04072 -0.660356,4.59677 0,2.57667 0.660356,4.65861 0.681658,2.08195 1.895861,3.46303 1.235506,1.36049 2.811841,2.04072 1.597636,0.68024 3.493498,0.68024 2.428407,0 4.45208,-1.17495 2.044974,-1.17496 3.237876,-3.62795 1.214203,-2.45298 1.214203,-6.0397 z" />
      <path
         inkscape:connector-curvature="0"
         id="path1663"
         style="font-style:normal;font-variant:normal;font-weight:normal;font-stretch:normal;font-size:42.91530228px;line-height:1.25;font-family:'Arial Rounded MT Bold';-inkscape-font-specification:'Arial Rounded MT Bold, Normal';font-variant-ligatures:normal;font-variant-caps:normal;font-variant-numeric:normal;font-feature-settings:normal;text-align:start;letter-spacing:0px;word-spacing:0px;writing-mode:lr-tb;text-anchor:start;fill:#f9f9f9;fill-opacity:1;stroke:none;stroke-width:1.07288253"
         d="m 74.176367,104.27025 v 0.68024 q 1.640239,-1.95826 3.408287,-2.86525 1.768058,-0.9276 4.004741,-0.9276 2.684032,0 4.942022,1.33986 2.258001,1.33987 3.557403,3.91653 1.320719,2.57667 1.320719,6.10155 0,2.59727 -0.766865,4.78229 -0.745568,2.16439 -2.066277,3.64855 -1.320719,1.46355 -3.131371,2.26747 -1.789354,0.78331 -3.855631,0.78331 -2.492308,0 -4.196455,-0.96884 -1.682839,-0.96882 -3.216573,-2.84463 v 8.45146 q 0,3.71039 -2.790538,3.71039 -1.64024,0 -2.172785,-0.96882 -0.532546,-0.94822 -0.532546,-2.7828 v -24.28248 q 0,-1.60784 0.724261,-2.39115 0.724262,-0.80391 1.98107,-0.80391 1.235505,0 2.00237,0.82453 0.788168,0.80392 0.788168,2.3293 z m 11.396472,8.18349 q 0,-2.22624 -0.702964,-3.81346 -0.702953,-1.60784 -1.959761,-2.45299 -1.235511,-0.86576 -2.747933,-0.86576 -2.407111,0 -4.068653,1.83459 -1.640238,1.83458 -1.640238,5.40069 0,3.35997 1.640238,5.23578 1.640245,1.8552 4.068653,1.8552 1.448521,0 2.684021,-0.80393 1.235511,-0.82453 1.981069,-2.45298 0.745568,-1.62845 0.745568,-3.93714 z" />
      <path
         inkscape:connector-curvature="0"
         id="path1665"
         style="font-style:normal;font-variant:normal;font-weight:normal;font-stretch:normal;font-size:42.91530228px;line-height:1.25;font-family:'Arial Rounded MT Bold';-inkscape-font-specification:'Arial Rounded MT Bold, Normal';font-variant-ligatures:normal;font-variant-caps:normal;font-variant-numeric:normal;font-feature-settings:normal;text-align:start;letter-spacing:0px;word-spacing:0px;writing-mode:lr-tb;text-anchor:start;fill:#f9f9f9;fill-opacity:1;stroke:none;stroke-width:1.07288253"
         d="m 110.26321,114.74836 q 0,2.32931 -1.17159,3.99898 -1.1716,1.64907 -3.4722,2.51483 -2.2793,0.84515 -5.55978,0.84515 -3.131373,0 -5.368053,-0.92761 -2.236684,-0.92759 -3.301784,-2.30869 -1.06508,-1.4017 -1.06508,-2.8034 0,-0.92761 0.68166,-1.58724 0.68165,-0.65962 1.72544,-0.65962 0.915964,0 1.405914,0.43288 0.48994,0.43288 0.93728,1.21619 0.89467,1.50477 2.13019,2.24685 1.25679,0.74208 3.408283,0.74208 1.74675,0 2.85445,-0.74208 1.12899,-0.7627 1.12899,-1.73152 0,-1.48416 -1.1716,-2.1644 -1.1503,-0.68023 -3.813023,-1.29864 -3.00356,-0.72146 -4.89942,-1.50477 -1.874564,-0.80392 -3.003554,-2.10256 -1.129,-1.29863 -1.129,-3.19506 0,-1.69029 1.04379,-3.19506 1.0438,-1.50477 3.067464,-2.39114 2.04497,-0.906994 4.92072,-0.906994 2.257993,0 4.047343,0.45349 1.81065,0.453504 3.00356,1.216184 1.2142,0.7627 1.83196,1.6903 0.63905,0.92759 0.63905,1.81397 0,0.96882 -0.68166,1.58722 -0.66036,0.6184 -1.89586,0.6184 -0.89467,0 -1.53374,-0.49472 -0.61774,-0.49471 -1.42721,-1.48415 -0.66036,-0.82454 -1.55504,-1.31925 -0.89468,-0.49473 -2.428403,-0.49473 -1.57634,0 -2.62013,0.65963 -1.04378,0.63901 -1.04378,1.60783 0,0.88638 0.76686,1.46355 0.76687,0.55656 2.06628,0.9276 1.299403,0.37104 3.578703,0.90699 2.70533,0.63901 4.40947,1.52538 1.72546,0.88638 2.59883,2.10256 0.89467,1.19557 0.89467,2.74157 z" />
      <path
         inkscape:connector-curvature="0"
         id="path1667"
         style="font-style:normal;font-variant:normal;font-weight:normal;font-stretch:normal;font-size:42.91530228px;line-height:1.25;font-family:'Arial Rounded MT Bold';-inkscape-font-specification:'Arial Rounded MT Bold, Normal';font-variant-ligatures:normal;font-variant-caps:normal;font-variant-numeric:normal;font-feature-settings:normal;text-align:start;letter-spacing:0px;word-spacing:0px;writing-mode:lr-tb;text-anchor:start;fill:#f9f9f9;fill-opacity:1;stroke:none;stroke-width:1.07288253"
         d="m 110.26321,114.74836 -0.68165,-9.87378 q -0.19172,-2.88586 -0.19172,-4.14328 0,-1.710904 0.91598,-2.659114 0.93728,-0.96883 2.44971,-0.96883 1.83195,0 2.4497,1.2368 0.61776,1.21619 0.61776,3.524884 0,1.36048 -0.14912,2.76218 l -0.91597,10.16237 q -0.14911,1.81397 -0.63906,2.78279 -0.48994,0.96883 -1.61893,0.96883 -1.15031,0 -1.59765,-0.9276 -0.44733,-0.94821 -0.63905,-2.86525 z m 2.36451,13.56356 q -1.29941,0 -2.2793,-0.80392 -0.95858,-0.82454 -0.95858,-2.28808 0,-1.27803 0.91598,-2.1644 0.93728,-0.90698 2.27929,-0.90698 1.34202,0 2.27929,0.90698 0.95859,0.88637 0.95859,2.1644 0,1.44293 -0.95859,2.26747 -0.95858,0.82453 -2.23668,0.82453 z" />
    </g>
    <text
       transform="scale(0.85224795,1.1733674)"
       id="text1809"
       y="112.65273"
       x="45.698803"
       style="font-style:normal;font-variant:normal;font-weight:bold;font-stretch:normal;font-size:12.25349903px;line-height:1.25;font-family:'Berlin Sans FB Demi';-inkscape-font-specification:'Berlin Sans FB Demi, Bold';font-variant-ligatures:normal;font-variant-caps:normal;font-variant-numeric:normal;font-feature-settings:normal;text-align:start;letter-spacing:0px;word-spacing:0px;writing-mode:lr-tb;text-anchor:start;fill:#000000;fill-opacity:1;stroke:none;stroke-width:0.30633879"
       xml:space="preserve"
       inkscape:export-xdpi="96"
       inkscape:export-ydpi="96"><tspan
         style="font-style:normal;font-variant:normal;font-weight:bold;font-stretch:normal;font-size:12.25349903px;font-family:'Berlin Sans FB Demi';-inkscape-font-specification:'Berlin Sans FB Demi, Bold';font-variant-ligatures:normal;font-variant-caps:normal;font-variant-numeric:normal;font-feature-settings:normal;text-align:start;writing-mode:lr-tb;text-anchor:start;fill:#000000;stroke-width:0.30633879"
         y="112.65273"
         x="45.698803"
         sodipodi:role="line"
         id="tspan1811">Algo de errado no est certo!!</tspan></text>
    <g
       transform="matrix(3.3006106,0,0,3.1653167,-17.423684,-293.7798)"
       id="g1893"
       style="opacity:0.14100001"
       inkscape:export-xdpi="96"
       inkscape:export-ydpi="96">
      <path
         style="color:#000000;font-style:normal;font-variant:normal;font-weight:normal;font-stretch:normal;font-size:medium;line-height:normal;font-family:sans-serif;font-variant-ligatures:normal;font-variant-position:normal;font-variant-caps:normal;font-variant-numeric:normal;font-variant-alternates:normal;font-feature-settings:normal;text-indent:0;text-align:start;text-decoration:none;text-decoration-line:none;text-decoration-style:solid;text-decoration-color:#000000;letter-spacing:normal;word-spacing:normal;text-transform:none;writing-mode:lr-tb;direction:ltr;text-orientation:mixed;dominant-baseline:auto;baseline-shift:baseline;text-anchor:start;white-space:normal;shape-padding:0;clip-rule:nonzero;display:inline;overflow:visible;visibility:visible;opacity:1;isolation:auto;mix-blend-mode:normal;color-interpolation:sRGB;color-interpolation-filters:linearRGB;solid-color:#000000;solid-opacity:1;vector-effect:none;fill:#ffffff;fill-opacity:1;fill-rule:evenodd;stroke:none;stroke-width:0.56021696;stroke-linecap:butt;stroke-linejoin:miter;stroke-miterlimit:4;stroke-dasharray:none;stroke-dashoffset:0;stroke-opacity:1;color-rendering:auto;image-rendering:auto;shape-rendering:auto;text-rendering:auto;enable-background:accumulate"
         d="m 18.723182,121.08645 c -0.582739,0.53755 -0.964902,1.2961 -0.987424,2.1539 -0.04037,1.53716 1.147172,2.91496 2.688615,2.94589 1.365169,0.0274 2.587432,-1.07234 2.602695,-2.4975 0.01333,-1.24421 -0.959474,-2.35744 -2.21619,-2.35696 -1.077391,4.2e-4 -2.040139,0.88216 -2.022977,2.01787 0.01436,0.95077 0.774259,1.79998 1.747718,1.76394 0.789011,-0.0291 1.494799,-0.69607 1.438492,-1.54464 -0.04358,-0.65658 -0.59626,-1.24719 -1.290347,-1.1628 -0.250097,0.0303 -0.477936,0.15445 -0.640577,0.34555 -0.162628,0.19113 -0.257577,0.46754 -0.195828,0.75173 0.03995,0.18384 0.140257,0.33937 0.293189,0.45124 0.152933,0.11188 0.398417,0.16531 0.607891,0.0551 0.469646,-0.23409 0.492453,-0.52 0.356217,-0.71275 -0.376552,-0.43508 -0.682225,-0.0807 -0.661353,0.127 l -0.05377,-0.0432 c -0.0213,-0.0981 0.0046,-0.17806 0.07292,-0.25843 0.06839,-0.0803 0.182691,-0.14217 0.286991,-0.15484 0.34609,-0.0421 0.646628,0.28088 0.670408,0.63917 0.03345,0.50407 -0.410277,0.92306 -0.90451,0.94135 -0.641347,0.0237 -1.161551,-0.55823 -1.171351,-1.20696 -0.01211,-0.80153 0.6879,-1.44412 1.467435,-1.44443 0.931617,-3.5e-4 1.670483,0.84566 1.66042,1.78532 -0.01178,1.0962 -0.970661,1.95998 -2.035982,1.93859 -1.220224,-0.0245 -2.177051,-1.13436 -2.144731,-2.36531 0.03649,-1.38977 1.255539,-2.47513 2.606911,-2.43035 2.186492,-0.0838 2.741844,2.13349 3.181209,2.96829 0.06706,-1.82985 -1.336563,-3.4735 -3.163426,-3.53402 -0.826293,-0.0274 -1.609855,0.28973 -2.192581,0.8273 z"
         id="path1869"
         inkscape:connector-curvature="0"
         sodipodi:nodetypes="cccsscccccccccccccccsccccccscc" />
      <path
         sodipodi:type="star"
         style="fill:#ffffff;stroke-width:0.96499997;stroke-miterlimit:4;stroke-dasharray:none"
         id="path1871"
         sodipodi:sides="3"
         sodipodi:cx="40.885517"
         sodipodi:cy="118.47501"
         sodipodi:r1="1.4188044"
         sodipodi:r2="0.7094022"
         sodipodi:arg1="-0.068856489"
         sodipodi:arg2="0.97834106"
         inkscape:flatsided="false"
         inkscape:rounded="0"
         inkscape:randomized="0"
         d="m 42.300959,118.3774 -1.019312,0.68611 -1.019312,0.68612 -0.08454,-1.22581 -0.08454,-1.22581 1.103851,0.5397 z"
         inkscape:transform-center-x="-0.24651416"
         inkscape:transform-center-y="0.11910671"
         transform="matrix(0.57231185,-0.05840462,0.05733122,0.58302715,-12.034667,53.669429)" />
      <path
         inkscape:transform-center-y="-0.33893399"
         inkscape:transform-center-x="-0.018075229"
         d="m 45.684623,116.6043 -1.019313,0.68612 -1.019312,0.68612 -0.08454,-1.22581 -0.08454,-1.22581 1.103851,0.53969 z"
         inkscape:randomized="0"
         inkscape:rounded="0"
         inkscape:flatsided="false"
         sodipodi:arg2="0.97834106"
         sodipodi:arg1="-0.068856489"
         sodipodi:r2="0.7094022"
         sodipodi:r1="1.4188044"
         sodipodi:cy="116.70192"
         sodipodi:cx="44.26918"
         sodipodi:sides="3"
         id="path1873"
         style="fill:#ffffff;stroke-width:0.96499997;stroke-miterlimit:4;stroke-dasharray:none"
         sodipodi:type="star"
         transform="matrix(0.48517881,0.31470002,-0.30891623,0.49426273,34.786132,47.827145)" />
      <path
         transform="matrix(0.24662611,0.52934713,-0.5196184,0.25124365,72.153814,67.200593)"
         sodipodi:type="star"
         style="fill:#ffffff;stroke-width:0.96499997;stroke-miterlimit:4;stroke-dasharray:none"
         id="path1875"
         sodipodi:sides="3"
         sodipodi:cx="44.26918"
         sodipodi:cy="116.70192"
         sodipodi:r1="1.4188044"
         sodipodi:r2="0.7094022"
         sodipodi:arg1="-0.068856489"
         sodipodi:arg2="0.97834106"
         inkscape:flatsided="false"
         inkscape:rounded="0"
         inkscape:randomized="0"
         d="m 45.684623,116.6043 -1.019313,0.68612 -1.019312,0.68612 -0.08454,-1.22581 -0.08454,-1.22581 1.103851,0.53969 z"
         inkscape:transform-center-x="0.34755023"
         inkscape:transform-center-y="0.0082255082" />
      <path
         inkscape:transform-center-y="0.12430518"
         inkscape:transform-center-x="0.24156536"
         d="m 40.218085,122.9982 -1.019312,0.68612 -1.019313,0.68611 -0.08454,-1.2258 -0.08454,-1.22581 1.103851,0.53969 z"
         inkscape:randomized="0"
         inkscape:rounded="0"
         inkscape:flatsided="false"
         sodipodi:arg2="0.97834106"
         sodipodi:arg1="-0.068856489"
         sodipodi:r2="0.7094022"
         sodipodi:r1="1.4188044"
         sodipodi:cy="123.09582"
         sodipodi:cx="38.802643"
         sodipodi:sides="3"
         id="path1877"
         style="fill:#ffffff;stroke-width:0.96499997;stroke-miterlimit:4;stroke-dasharray:none"
         sodipodi:type="star"
         transform="matrix(0.39981779,-0.42123106,0.41348936,0.40730351,-49.341612,88.355442)" />
      <path
         transform="matrix(0.20570258,-0.54719184,0.53713515,0.20955391,-57.067157,119.75885)"
         sodipodi:type="star"
         style="fill:#ffffff;stroke-width:0.96499997;stroke-miterlimit:4;stroke-dasharray:none"
         id="path1879"
         sodipodi:sides="3"
         sodipodi:cx="38.802643"
         sodipodi:cy="123.09582"
         sodipodi:r1="1.4188044"
         sodipodi:r2="0.7094022"
         sodipodi:arg1="-0.068856489"
         sodipodi:arg2="0.97834106"
         inkscape:flatsided="false"
         inkscape:rounded="0"
         inkscape:randomized="0"
         d="m 40.218085,122.9982 -1.019312,0.68612 -1.019313,0.68611 -0.08454,-1.2258 -0.08454,-1.22581 1.103851,0.53969 z"
         inkscape:transform-center-x="0.20752635"
         inkscape:transform-center-y="-0.15946269" />
      <path
         inkscape:transform-center-y="-0.079618527"
         inkscape:transform-center-x="-0.28350982"
         d="m 40.218085,122.9982 -1.019312,0.68612 -1.019313,0.68611 -0.08454,-1.2258 -0.08454,-1.22581 1.103851,0.53969 z"
         inkscape:randomized="0"
         inkscape:rounded="0"
         inkscape:flatsided="false"
         sodipodi:arg2="0.97834106"
         sodipodi:arg1="-0.068856489"
         sodipodi:r2="0.7094022"
         sodipodi:r1="1.4188044"
         sodipodi:cy="123.09582"
         sodipodi:cx="38.802643"
         sodipodi:sides="3"
         id="path1881"
         style="fill:#ffffff;stroke-width:0.96499997;stroke-miterlimit:4;stroke-dasharray:none"
         sodipodi:type="star"
         transform="matrix(-0.19304638,-0.55195679,0.54181253,-0.19666076,-40.860276,171.94901)" />
      <path
         transform="matrix(-0.49512957,-0.29818216,0.29270195,-0.5043998,3.8465977,200.64123)"
         sodipodi:type="star"
         style="fill:#ffffff;stroke-width:0.96499997;stroke-miterlimit:4;stroke-dasharray:none"
         id="path1883"
         sodipodi:sides="3"
         sodipodi:cx="38.802643"
         sodipodi:cy="123.09582"
         sodipodi:r1="1.4188044"
         sodipodi:r2="0.7094022"
         sodipodi:arg1="-0.068856489"
         sodipodi:arg2="0.97834106"
         inkscape:flatsided="false"
         inkscape:rounded="0"
         inkscape:randomized="0"
         d="m 40.218085,122.9982 -1.019312,0.68612 -1.019313,0.68611 -0.08454,-1.2258 -0.08454,-1.22581 1.103851,0.53969 z"
         inkscape:transform-center-x="0.041521599"
         inkscape:transform-center-y="0.31814524" />
      <path
         inkscape:transform-center-y="0.044780114"
         inkscape:transform-center-x="0.31521936"
         d="m 40.218085,122.9982 -1.019312,0.68612 -1.019313,0.68611 -0.08454,-1.2258 -0.08454,-1.22581 1.103851,0.53969 z"
         inkscape:randomized="0"
         inkscape:rounded="0"
         inkscape:flatsided="false"
         sodipodi:arg2="0.97834106"
         sodipodi:arg1="-0.068856489"
         sodipodi:r2="0.7094022"
         sodipodi:r1="1.4188044"
         sodipodi:cy="123.09582"
         sodipodi:cx="38.802643"
         sodipodi:sides="3"
         id="path1885"
         style="fill:#ffffff;stroke-width:0.96499997;stroke-miterlimit:4;stroke-dasharray:none"
         sodipodi:type="star"
         transform="matrix(-0.57017165,-0.07712752,0.07571001,-0.58084688,35.550949,200.93253)" />
      <path
         inkscape:transform-center-y="0.28909929"
         inkscape:transform-center-x="0.073541236"
         d="m 45.684623,116.6043 -1.019313,0.68612 -1.019312,0.68612 -0.08454,-1.22581 -0.08454,-1.22581 1.103851,0.53969 z"
         inkscape:randomized="0"
         inkscape:rounded="0"
         inkscape:flatsided="false"
         sodipodi:arg2="0.97834106"
         sodipodi:arg1="-0.068856489"
         sodipodi:r2="0.7094022"
         sodipodi:r1="1.4188044"
         sodipodi:cy="116.70192"
         sodipodi:cx="44.26918"
         sodipodi:sides="3"
         id="path1887"
         style="fill:#ffffff;stroke-width:0.96499997;stroke-miterlimit:4;stroke-dasharray:none"
         sodipodi:type="star"
         transform="matrix(0.02013013,0.58558622,-0.57482388,0.02050702,90.288537,93.09634)" />
      <path
         transform="matrix(-0.52462894,0.23623895,-0.24309019,-0.53293739,74.473536,181.60679)"
         sodipodi:type="star"
         style="fill:#ffffff;stroke-width:0.96499997;stroke-miterlimit:4;stroke-dasharray:none"
         id="path1889"
         sodipodi:sides="3"
         sodipodi:cx="38.802643"
         sodipodi:cy="123.09582"
         sodipodi:r1="1.4188044"
         sodipodi:r2="0.7094022"
         sodipodi:arg1="-0.068856489"
         sodipodi:arg2="0.97834106"
         inkscape:flatsided="false"
         inkscape:rounded="0"
         inkscape:randomized="0"
         d="m 40.218085,122.9982 -1.019312,0.68612 -1.019313,0.68611 -0.08454,-1.2258 -0.08454,-1.22581 1.103851,0.53969 z"
         inkscape:transform-center-x="0.11236579"
         inkscape:transform-center-y="-0.10661253" />
      <path
         inkscape:transform-center-y="0.1021763"
         inkscape:transform-center-x="-0.14241905"
         d="m 40.218085,122.9982 -1.019312,0.68612 -1.019313,0.68611 -0.08454,-1.2258 -0.08454,-1.22581 1.103851,0.53969 z"
         inkscape:randomized="0"
         inkscape:rounded="0"
         inkscape:flatsided="false"
         sodipodi:arg2="0.97834106"
         sodipodi:arg1="-0.068856489"
         sodipodi:r2="0.7094022"
         sodipodi:r1="1.4188044"
         sodipodi:cy="123.09582"
         sodipodi:cx="38.802643"
         sodipodi:sides="3"
         id="path1891"
         style="fill:#ffffff;stroke-width:0.96499997;stroke-miterlimit:4;stroke-dasharray:none"
         sodipodi:type="star"
         transform="matrix(-0.34584973,0.45981771,-0.46982479,-0.3498282,95.940068,148.575)" />
    </g>
  </g>
</svg>
